<svg version="1.1" xmlns="http://www.w3.org/2000/svg" xmlns:xlink="http://www.w3.org/1999/xlink" x="0" y="0" viewBox="0 0 33.917 33.917" enable-background="new 0 0 33.917 33.917" xml:space="preserve"><g id="ORIGINAL_images" display="none"/><g id="shapes_1" display="none"/><g id="shapes_2"/><g id="Layer_1"><path fill="#E0E0E0" d="M3 33c-1.103 0-2-0.897-2-2V3c0-1.103 0.897-2 2-2h28c1.103 0 2 0.897 2 2v28c0 1.103-0.897 2-2 2H3z"/><path fill="#C0C0C0" d="M31 2c0.542 0 1 0.458 1 1v28c0 0.542-0.458 1-1 1H3c-0.542 0-1-0.458-1-1V3c0-0.542 0.458-1 1-1H31M31 0H3C1.35 0 0 1.35 0 3v28c0 1.65 1.35 3 3 3h28c1.65 0 3-1.35 3-3V3C34 1.35 32.65 0 31 0L31 0z"/><path fill="none" stroke="#999999" stroke-width="3" stroke-miterlimit="10" d="M23 9.5c0 0 2.906 0 4 0 0.531 0 0.5-0.031 0.5 0.5 0 0.531 0 13.312 0 14 0 0.875-0.156 1.5-0.5 1.5 -0.937 0-6 0-6 0"/><polygon fill="#999999" points="24.623 20.223 22.594 25 24.623 29.777 13.299 25 "/><path fill="none" stroke="#999999" stroke-width="3" stroke-miterlimit="10" d="M11 25.5c0 0-1.906 0-3 0 -0.531 0-1.5-0.969-1.5-1.5 0-0.531 0-13.312 0-14 0-0.875 1.156-0.5 1.5-0.5 0.937 0 5 0 5 0"/><polygon fill="#999999" points="9.377 13.777 11.406 9 9.377 4.223 20.701 9 "/></g></svg>