<?xml version="1.0" encoding="utf-8"?>
<!-- Generator: Adobe Illustrator 18.0.0, SVG Export Plug-In . SVG Version: 6.00 Build 0)  -->
<!DOCTYPE svg PUBLIC "-//W3C//DTD SVG 1.1//EN" "http://www.w3.org/Graphics/SVG/1.1/DTD/svg11.dtd">
<svg version="1.1" xmlns="http://www.w3.org/2000/svg" xmlns:xlink="http://www.w3.org/1999/xlink" x="0px" y="0px"
	 viewBox="0 0 34 34" enable-background="new 0 0 34 34" xml:space="preserve">
<g id="ORIGINAL_images" display="none">
</g>
<g id="shapes_1" display="none">
</g>
<g id="shapes_2" display="none">
</g>
<g id="Layer_1">
	<g>
		<path fill="#FFFFFF" d="M3,33.5c-1.4,0-2.5-1.1-2.5-2.5V3c0-1.4,1.1-2.5,2.5-2.5h28c1.4,0,2.5,1.1,2.5,2.5v28
			c0,1.4-1.1,2.5-2.5,2.5H3z"/>
		<path fill="#999999" d="M31,1c1.1,0,2,0.9,2,2v28c0,1.1-0.9,2-2,2H3c-1.1,0-2-0.9-2-2V3c0-1.1,0.9-2,2-2H31 M31,0H3
			C1.3,0,0,1.4,0,3v28c0,1.6,1.3,3,3,3h28c1.7,0,3-1.4,3-3V3C34,1.4,32.7,0,31,0L31,0z"/>
	</g>
	<g>
		<g>
			<path fill="none" stroke="#00A0E5" stroke-width="3" stroke-miterlimit="10" d="M22,8.5c0,0,4.9,0,6,0c0.5,0,0.5,0,0.5,0.5
				s0,15.3,0,16c0,0.9-0.2,1.5-0.5,1.5c-0.9,0-6,0-6,0"/>
			<g>
				<polygon fill="#00A0E5" points="25.8,21 23.7,26 25.8,31 13.9,26 				"/>
			</g>
		</g>
	</g>
	<g>
		<g>
			<path fill="none" stroke="#00A0E5" stroke-width="3" stroke-miterlimit="10" d="M13,26.5c0,0-4.9,0-6,0c-0.5,0-1.5-1-1.5-1.5
				s0-15.3,0-16c0-0.9,1.2-0.5,1.5-0.5c0.9,0,6,0,6,0"/>
			<g>
				<polygon fill="#00A0E5" points="9.2,13 11.3,8 9.2,3 21.1,8 				"/>
			</g>
		</g>
	</g>
</g>
</svg>
