<svg version="1.1" xmlns="http://www.w3.org/2000/svg" xmlns:xlink="http://www.w3.org/1999/xlink" x="0" y="0" viewBox="0 0 34 34" enable-background="new 0 0 34 34" xml:space="preserve">
  <g id="ORIGINAL_images" display="none"/>
  <g id="shapes_1" display="none"/>
  <g id="shapes_2"/>
  <g id="Layer_1">
    <path fill="#FFFFFF" d="M27.75 30h-22c-1.65 0-3-1.35-3-3V6c0-1.65 1.35-3 3-3h22c1.65 0 3 1.35 3 3v21C30.75 28.65 29.4 30 27.75 30z"/>
    <path fill="none" stroke="#444444" stroke-width="2" stroke-miterlimit="10" d="M14 30c0 0-8.969 0-10 0s-1-1-1-1V5c0 0-0.031-1 1-1 0.719 0 8 0 8 0"/>
    <polygon fill="#444444" points="9.641 7.111 10.962 4 9.641 0.889 17.015 4 "/>
    <path fill="none" stroke="#444444" stroke-width="2" stroke-miterlimit="10" d="M20 4c0 0 9.03 0 9.999 0C30.969 4 31 5 31 5v24c0 0 0 1-1 1s-8 0-8 0"/>
    <polygon fill="#444444" points="24.359 26.889 23.038 30 24.359 33.111 16.985 30 "/>
    <path fill="#327BCC" d="M11.033 19.839c0.218 0.135 0.624 0.243 0.951 0.243 0.703 0 1.118-0.414 1.118-1.026 0-0.558-0.356-0.9-0.881-1.26 -0.535-0.333-1.258-0.9-1.258-1.684 0-0.918 0.703-1.902 1.763-1.902 0.416 0 0.772 0.212 0.931 0.32l-0.178 0.787c-0.169-0.108-0.446-0.287-0.792-0.287 -0.664 0-0.971 0.55-0.971 0.964 0 0.604 0.347 0.837 0.98 1.251 0.802 0.513 1.158 1.071 1.158 1.747 0 1.044-0.802 1.702-1.871 1.702 -0.456 0-0.932-0.135-1.119-0.261L11.033 19.839z"/>
    <path fill="#327BCC" d="M18.672 21.459c-0.505-0.189-1.179-0.477-1.535-0.657 -0.108-0.054-0.197-0.09-0.247-0.09 -1.1 0-1.872-1-1.872-3.115 0-2.025 0.803-3.297 1.971-3.297 1.139 0 1.812 1.335 1.812 3.261 0 1.657-0.426 2.566-1.139 2.872v0.027c0.445 0.18 0.901 0.315 1.297 0.441L18.672 21.459zM18.009 17.588c0-1.162-0.229-2.638-1.08-2.638 -0.861 0-1.118 1.486-1.118 2.647C15.8 18.786 16.058 20.1 16.94 20.1 17.78 20.1 18.009 18.786 18.009 17.588z"/>
    <path fill="#327BCC" d="M20.232 14.572h0.763v5.483h1.871v0.585h-2.634V14.572z"/>
    <path fill="none" stroke="#555555" d="M19.029 9.5h-8.4c-0.624 0-1.129 0.506-1.129 1.13v12.553c0 0.624 0.505 1.317 1.129 1.317H23.17c0.623 0 1.33-0.694 1.33-1.317v-8.412L19.029 9.5z"/>
    <path fill="#999999" stroke="#555555" stroke-linejoin="round" d="M19.042 12.792c-0.013 1.417 0.789 2.017 2.06 2.017l3.398-0.038L19.029 9.5 19.042 12.792z"/>
  </g>
</svg>
