<?xml version="1.0" encoding="utf-8"?>
<!-- Generator: Adobe Illustrator 18.0.0, SVG Export Plug-In . SVG Version: 6.00 Build 0)  -->
<!DOCTYPE svg PUBLIC "-//W3C//DTD SVG 1.1//EN" "http://www.w3.org/Graphics/SVG/1.1/DTD/svg11.dtd">
<svg version="1.1" xmlns="http://www.w3.org/2000/svg" xmlns:xlink="http://www.w3.org/1999/xlink" x="0px" y="0px"
	 viewBox="0 0 34 34" enable-background="new 0 0 34 34" xml:space="preserve">
<g id="ORIGINAL_images" display="none">
</g>
<g id="shapes_1" display="none">
</g>
<g id="shapes_2" display="none">
</g>
<g id="Layer_1">
	<path fill="#FFFFFF" d="M27.8,30h-22c-1.7,0-3-1.4-3-3V6c0-1.7,1.3-3,3-3h22c1.6,0,3,1.3,3,3v21C30.8,28.6,29.4,30,27.8,30z"/>
	<g>
		<g>
			<path fill="none" stroke="#444444" stroke-width="2" stroke-miterlimit="10" d="M14,30c0,0-9,0-10,0s-1-1-1-1V5c0,0,0-1,1-1
				c0.7,0,9,0,9,0"/>
			<g>
				<polygon fill="#444444" points="10.5,7.3 11.9,4 10.5,0.7 18.4,4 				"/>
			</g>
		</g>
	</g>
	<g>
		<g>
			<path fill="none" stroke="#444444" stroke-width="2" stroke-miterlimit="10" d="M20,4c0,0,9,0,10,0c1,0,1,1,1,1v24c0,0,0,1-1,1
				s-9,0-9,0"/>
			<g>
				<polygon fill="#444444" points="23.5,26.7 22.1,30 23.5,33.3 15.6,30 				"/>
			</g>
		</g>
	</g>
	<g>
		<polygon fill="#808285" stroke="#555555" stroke-miterlimit="10" points="9.5,9.5 9.5,23.5 24.5,23.5 24.5,23.5 9.5,23.5 
			9.5,11.5 24.5,11.5 24.5,23.5 24.5,22.9 24.5,9.5 		"/>
		<line fill="none" stroke="#555555" stroke-miterlimit="10" x1="14.5" y1="11" x2="14.5" y2="23"/>
		<line fill="none" stroke="#555555" stroke-miterlimit="10" x1="19.5" y1="11" x2="19.5" y2="23"/>
		<line fill="none" stroke="#555555" stroke-miterlimit="10" x1="9" y1="15.5" x2="25" y2="15.5"/>
		<line fill="none" stroke="#555555" stroke-miterlimit="10" x1="9" y1="19.5" x2="25" y2="19.5"/>
	</g>
	<g>
		<polygon fill="#327BCC" points="21.2,25.8 21.2,22.8 18.2,22.8 18.2,19.2 21.2,19.2 21.2,16.2 24.8,16.2 24.8,19.2 27.8,19.2 
			27.8,22.8 24.8,22.8 24.8,25.8 		"/>
		<path fill="#FFFFFF" d="M24,17v3h3v2h-3v3h-2v-3h-3v-2h3v-3H24 M25.5,15.5H24h-2h-1.5V17v1.5H19h-1.5V20v2v1.5H19h1.5V25v1.5H22h2
			h1.5V25v-1.5H27h1.5V22v-2v-1.5H27h-1.5V17V15.5L25.5,15.5z"/>
	</g>
</g>
</svg>
