<svg xmlns="http://www.w3.org/2000/svg" viewBox="0 0 34 34" enable-background="new 0 0 34 34"><path fill="none" d="M15.658 10.5l5.29 12.604"/><g><path fill="#fff" d="M27.75 30h-22c-1.65 0-3-1.35-3-3V6c0-1.65 1.35-3 3-3h22c1.65 0 3 1.35 3 3v21c0 1.65-1.35 3-3 3z"/><path fill="none" stroke="#444" stroke-width="2" stroke-miterlimit="10" d="M14 30H4l-1-1V5s-.03-1 1-1h8"/><path fill="#444" d="M9.64 7.11L10.963 4 9.642.89 17.014 4z"/><path fill="none" stroke="#444" stroke-width="2" stroke-miterlimit="10" d="M20 4h10c.97 0 1 1 1 1v24s0 1-1 1h-8"/><path fill="#444" d="M24.36 26.89L23.037 30l1.32 3.11L16.986 30z"/><path fill="#00A0E5" d="M13.5 22H12l4.39-11h1.028L22 22h-1.52l-1.285-3.072h-2.1l-.488-1.686 1.892.004-1.583-3.704L13.5 22z"/><path fill="none" stroke="#555" d="M19.03 9.5h-8.4c-.625 0-1.13.506-1.13 1.13v12.553c0 .624.505 1.317 1.13 1.317h12.54c.623 0 1.33-.694 1.33-1.317V14.77L19.03 9.5z"/><path fill="#999" stroke="#555" stroke-linejoin="round" d="M19.042 12.792c-.013 1.417.79 2.017 2.06 2.017l3.398-.04-5.47-5.27.012 3.292z"/></g></svg>