<svg xmlns="http://www.w3.org/2000/svg" viewBox="0 0 34 34" enable-background="new 0 0 34 34"><g><path fill="#fff" d="M27.75 30h-22c-1.65 0-3-1.35-3-3V6c0-1.65 1.35-3 3-3h22c1.65 0 3 1.35 3 3v21c0 1.65-1.35 3-3 3z"/><path fill="none" stroke="#444" stroke-width="2" stroke-miterlimit="10" d="M14 30H4l-1-1V5s-.03-1 1-1h8"/><path fill="#444" d="M9.64 7.11L10.963 4 9.642.89 17.014 4z"/><path fill="none" stroke="#444" stroke-width="2" stroke-miterlimit="10" d="M20 4h10c.97 0 1 1 1 1v24s0 1-1 1h-8"/><path fill="#444" d="M24.36 26.89L23.037 30l1.32 3.11L16.986 30z"/><path fill="#327BCC" d="M11.033 19.84c.218.134.624.242.95.242.704 0 1.12-.414 1.12-1.026 0-.558-.357-.9-.882-1.26-.534-.333-1.257-.9-1.257-1.684 0-.918.703-1.902 1.763-1.902.416 0 .772.212.93.32l-.177.787c-.17-.108-.447-.287-.793-.287-.664 0-.97.55-.97.964 0 .604.346.837.98 1.25.8.514 1.157 1.072 1.157 1.748 0 1.044-.802 1.702-1.87 1.702-.457 0-.933-.135-1.12-.26l.17-.595zM18.672 21.46c-.505-.19-1.18-.478-1.535-.658-.108-.054-.197-.09-.247-.09-1.1 0-1.872-1-1.872-3.115 0-2.025.803-3.297 1.97-3.297 1.14 0 1.813 1.335 1.813 3.26 0 1.658-.425 2.567-1.138 2.873v.027c.445.18.9.315 1.297.44l-.288.56zm-.663-3.872c0-1.162-.23-2.638-1.08-2.638-.862 0-1.12 1.486-1.12 2.647-.01 1.19.248 2.503 1.13 2.503.84 0 1.07-1.314 1.07-2.512zM20.232 14.572h.763v5.483h1.87v.585h-2.633v-6.068z"/><path fill="none" stroke="#555" d="M19.03 9.5h-8.4c-.625 0-1.13.506-1.13 1.13v12.553c0 .624.505 1.317 1.13 1.317h12.54c.623 0 1.33-.694 1.33-1.317V14.77L19.03 9.5z"/><path fill="#999" stroke="#555" stroke-linejoin="round" d="M19.042 12.792c-.013 1.417.79 2.017 2.06 2.017l3.398-.04-5.47-5.27.012 3.292z"/></g></svg>