<?xml version="1.0" encoding="utf-8"?>
<!-- Generator: Adobe Illustrator 18.0.0, SVG Export Plug-In . SVG Version: 6.00 Build 0)  -->
<!DOCTYPE svg PUBLIC "-//W3C//DTD SVG 1.1//EN" "http://www.w3.org/Graphics/SVG/1.1/DTD/svg11.dtd">
<svg version="1.1" xmlns="http://www.w3.org/2000/svg" xmlns:xlink="http://www.w3.org/1999/xlink" x="0px" y="0px"
	 viewBox="0 0 34 34" enable-background="new 0 0 34 34" xml:space="preserve">
<g id="ORIGINAL_images" display="none">
</g>
<g id="shapes_1" display="none">
</g>
<g id="shapes_2" display="none">
</g>
<g id="Layer_1">
	<path fill="#FFFFFF" d="M27.8,30h-22c-1.7,0-3-1.4-3-3V6c0-1.7,1.3-3,3-3h22c1.6,0,3,1.3,3,3v21C30.8,28.6,29.4,30,27.8,30z"/>
	<g>
		<g>
			<path fill="none" stroke="#444444" stroke-width="2" stroke-miterlimit="10" d="M14,30c0,0-9,0-10,0s-1-1-1-1V5c0,0,0-1,1-1
				c0.7,0,9,0,9,0"/>
			<g>
				<polygon fill="#444444" points="10.5,7.3 11.9,4 10.5,0.7 18.4,4 				"/>
			</g>
		</g>
	</g>
	<g>
		<g>
			<path fill="none" stroke="#444444" stroke-width="2" stroke-miterlimit="10" d="M20,4c0,0,9,0,10,0c1,0,1,1,1,1v24c0,0,0,1-1,1
				s-9,0-9,0"/>
			<g>
				<polygon fill="#444444" points="23.5,26.7 22.1,30 23.5,33.3 15.6,30 				"/>
			</g>
		</g>
	</g>
	<g>
		<path fill="none" stroke="#555555" d="M19,8.5h-8.4C10,8.5,9.5,9,9.5,9.6v13.6c0,0.6,0.5,1.3,1.1,1.3h12.5c0.6,0,1.3-0.7,1.3-1.3
			v-9.4L19,8.5z"/>
		<path fill="#999999" stroke="#555555" stroke-linejoin="round" d="M19,11.8c0,1.4,0.8,2,2.1,2l3.4,0L19,8.5L19,11.8z"/>
	</g>
	<text transform="matrix(1.1 0 0 1 10.9995 21)" fill="#327BCC" font-family="'MyriadPro-Cond'" font-size="9">SQL</text>
</g>
</svg>
