<svg version="1.1" xmlns="http://www.w3.org/2000/svg" xmlns:xlink="http://www.w3.org/1999/xlink" x="0" y="0" viewBox="0 0 34 34" enable-background="new 0 0 34 34" xml:space="preserve"><g id="ORIGINAL_images" display="none"/><g id="shapes_1" display="none"><g display="inline"><path fill="#00A0E5" d="M13.593 22H12l4.39-11h1.028L22 22h-1.612l-1.229-3h-2.044l-0.578-2h2.022l-1.666-3.158L13.593 22z"/></g></g><g id="shapes_2"><line fill="none" x1="15.658" y1="10.5" x2="20.949" y2="23.104"/></g><g id="Layer_1"><path fill="#FFFFFF" d="M27.75 30h-22c-1.65 0-3-1.35-3-3V6c0-1.65 1.35-3 3-3h22c1.65 0 3 1.35 3 3v21C30.75 28.65 29.4 30 27.75 30z"/><path fill="none" stroke="#444444" stroke-width="2" stroke-miterlimit="10" d="M14 30c0 0-8.969 0-10 0s-1-1-1-1V5c0 0-0.031-1 1-1 0.719 0 8 0 8 0"/><polygon fill="#444444" points="9.641 7.111 10.962 4 9.641 0.889 17.015 4 "/><path fill="none" stroke="#444444" stroke-width="2" stroke-miterlimit="10" d="M20 4c0 0 9.03 0 9.999 0C30.969 4 31 5 31 5v24c0 0 0 1-1 1s-8 0-8 0"/><polygon fill="#444444" points="24.359 26.889 23.038 30 24.359 33.111 16.985 30 "/><path fill="#00A0E5" d="M13.5 22H12l4.39-11h1.028L22 22h-1.521l-1.284-3.072 -2.101-0.001 -0.487-1.685 1.892 0.004 -1.582-3.704L13.5 22z"/><path fill="none" stroke="#555555" d="M19.029 9.5h-8.4c-0.624 0-1.129 0.506-1.129 1.13v12.553c0 0.624 0.505 1.317 1.129 1.317H23.17c0.623 0 1.33-0.694 1.33-1.317v-8.412L19.029 9.5z"/><path fill="#999999" stroke="#555555" stroke-linejoin="round" d="M19.042 12.792c-0.013 1.417 0.789 2.017 2.06 2.017l3.398-0.038L19.029 9.5 19.042 12.792z"/></g></svg>