<svg version="1.1" xmlns="http://www.w3.org/2000/svg" xmlns:xlink="http://www.w3.org/1999/xlink" x="0px" y="0px" viewBox="0 0 34 34" enable-background="new 0 0 34 34" xml:space="preserve"><g id="ORIGINAL_images" display="none"/><g id="shapes_1" display="none"/><g id="shapes_2"/><g id="Layer_1"><path fill="#FFFFFF" d="M27.75 30h-22c-1.65 0-3-1.35-3-3V6c0-1.65 1.35-3 3-3h22c1.65 0 3 1.35 3 3v21C30.75 28.65 29.4 30 27.75 30z"/><g><g><path fill="none" stroke="#444444" stroke-width="2" stroke-miterlimit="10" d="M14 30c0 0-8.969 0-10 0s-1-1-1-1V5c0 0-0.031-1 1-1 0.719 0 8 0 8 0"/><g><polygon fill="#444444" points="9.641 7.111 10.962 4 9.641 0.889 17.015 4 "/></g></g></g><g><g><path fill="none" stroke="#444444" stroke-width="2" stroke-miterlimit="10" d="M20 4c0 0 9.03 0 9.999 0C30.969 4 31 5 31 5v24c0 0 0 1-1 1s-8 0-8 0"/><g><polygon fill="#444444" points="24.359 26.889 23.038 30 24.359 33.111 16.985 30 "/></g></g></g><g><path fill="#808285" stroke="#555555" stroke-miterlimit="10" d="M9.5 10.053v12.895c0 0.305 0.247 0.553 0.553 0.553H24.5l0 0H10.053c-0.305 0-0.553-0.247-0.553-0.553V12.053c0-0.305 0.247-0.553 0.553-0.553h13.895c0.305 0 0.553 0.247 0.553 0.553V23.5v-0.633V10.053c0-0.305-0.247-0.553-0.553-0.553H10.053C9.747 9.5 9.5 9.747 9.5 10.053z"/><line fill="none" stroke="#555555" stroke-miterlimit="10" x1="14.5" y1="11" x2="14.5" y2="23"/><line fill="none" stroke="#555555" stroke-miterlimit="10" x1="19.5" y1="11" x2="19.5" y2="23"/><line fill="none" stroke="#555555" stroke-miterlimit="10" x1="9" y1="15.5" x2="25" y2="15.5"/><line fill="none" stroke="#555555" stroke-miterlimit="10" x1="9" y1="19.5" x2="25" y2="19.5"/><rect x="10" y="10" fill="#808285" stroke="#555555" stroke-miterlimit="10" width="14" height="1"/></g><g><polygon fill="#327BCC" points="21.25 25.75 21.25 22.75 18.25 22.75 18.25 19.25 21.25 19.25 21.25 16.25 24.75 16.25 24.75 19.25 27.75 19.25 27.75 22.75 24.75 22.75 24.75 25.75 "/><path fill="#FFFFFF" d="M24 17v3h3v2h-3v3h-2v-3h-3v-2h3v-3H24M25.5 15.5H24h-2 -1.5V17v1.5H19h-1.5V20v2 1.5H19h1.5V25v1.5H22h2 1.5V25v-1.5H27h1.5V22v-2 -1.5H27h-1.5V17 15.5L25.5 15.5z"/></g></g></svg>