<svg version="1.1" xmlns="http://www.w3.org/2000/svg" xmlns:xlink="http://www.w3.org/1999/xlink" x="0" y="0" width="22" height="22" viewBox="0 0 22 22" xml:space="preserve" enable-background="new 0 0 22 22"><g id="ORIGINAL_images" display="none"/><g id="shapes_1" display="none"/><g id="shapes_2"/><g id="Layer_1"><path d="M4.5 19.5c-1.65 0-2.99-1.34-2.99-2.99V5.5C1.5 3.84 2.84 2.5 4.5 2.5h13.01c1.65 0 3 1.34 3 3v11.01c0 1.65-1.34 3-2.99 3H4.5z" fill="#F2F2F0"/><path d="M17.51 3C18.88 3 20 4.12 20 5.5v11.01C20 17.88 18.88 19 17.51 19H4.5C3.12 19 2 17.88 2 16.51V5.5C2 4.12 3.12 3 4.5 3H17.51M17.51 2H4.5C2.57 2 1 3.57 1 5.5v11.01C1 18.43 2.57 20 4.5 20h13.01C19.43 20 21 18.43 21 16.51V5.5C21 3.57 19.43 2 17.51 2L17.51 2z" fill="#A0A0A0"/><path d="M11.5 12.83l1.87-0.32c0.34 0.53 0.58 1.12 0.72 1.76 0.35-0.52 0.62-0.88 0.8-1.09 0.24-0.28 0.44-0.46 0.59-0.55 0.16-0.08 0.32-0.13 0.5-0.13 0.2 0 0.35 0.05 0.45 0.16s0.16 0.25 0.16 0.44c0 0.17-0.05 0.31-0.16 0.42 -0.1 0.11-0.24 0.16-0.39 0.16 -0.11 0-0.25-0.02-0.39-0.06 -0.15-0.04-0.25-0.06-0.31-0.06 -0.15 0-0.29 0.05-0.43 0.16 -0.19 0.15-0.41 0.46-0.69 0.94 0.31 1.07 0.55 1.73 0.73 1.97 0.11 0.14 0.22 0.21 0.33 0.21 0.09 0 0.17-0.02 0.24-0.07 0.1-0.07 0.26-0.26 0.48-0.56l0.19 0.11c-0.31 0.51-0.62 0.87-0.92 1.07 -0.23 0.16-0.45 0.24-0.68 0.24 -0.23 0-0.42-0.05-0.57-0.15 -0.15-0.1-0.29-0.27-0.4-0.5 -0.12-0.23-0.26-0.6-0.42-1.11 -0.42 0.53-0.75 0.92-0.98 1.17 -0.24 0.25-0.44 0.41-0.59 0.48s-0.33 0.11-0.5 0.11c-0.19 0-0.33-0.05-0.44-0.16S10.5 17.23 10.5 17.06c0-0.18 0.06-0.33 0.18-0.45s0.27-0.18 0.45-0.18c0.1 0 0.21 0.03 0.33 0.09 0.18 0.09 0.31 0.13 0.39 0.13 0.1 0 0.2-0.02 0.28-0.06 0.11-0.05 0.24-0.17 0.41-0.35 0.1-0.11 0.28-0.35 0.55-0.71 -0.34-1.27-0.61-2.04-0.81-2.29 -0.12-0.16-0.28-0.24-0.46-0.24 -0.1 0-0.21 0.01-0.35 0.04L11.5 12.83z" fill="#4E4E4F"/><rect id="_x3C_Slice_x3E__9_" width="22" height="22" fill="none"/><path d="M10.78 8.64l-0.96 2.98c-0.45 1.41-0.86 2.43-1.24 3.06 -0.38 0.63-0.8 1.1-1.27 1.4 -0.47 0.3-0.99 0.46-1.57 0.46 -0.36 0-0.63-0.07-0.79-0.21 -0.16-0.14-0.24-0.3-0.22-0.49 0.01-0.18 0.09-0.33 0.24-0.46s0.34-0.19 0.57-0.19c0.19 0 0.34 0.05 0.43 0.15 0.1 0.1 0.14 0.22 0.13 0.38 -0.01 0.14-0.05 0.24-0.12 0.31 -0.07 0.07-0.1 0.11-0.1 0.13l0.03 0.05c0.03 0.02 0.05 0.03 0.09 0.03 0.13 0 0.24-0.04 0.34-0.12 0.24-0.2 0.43-0.45 0.56-0.74 0.09-0.2 0.27-0.72 0.55-1.57l2.21-5.15 -1.79-0.01 0.27-0.75c0.32 0 0.92-0.04 1.07-0.12 0.15-0.09 0.32-0.28 0.5-0.58 0.53-0.87 1.07-1.5 1.62-1.88 0.55-0.38 1.14-0.57 1.78-0.57 0.41 0 0.7 0.08 0.88 0.24 0.18 0.16 0.25 0.37 0.24 0.62 -0.02 0.22-0.09 0.4-0.22 0.53 -0.13 0.13-0.29 0.2-0.48 0.2 -0.17 0-0.31-0.05-0.41-0.16 -0.1-0.11-0.15-0.24-0.14-0.39 0.01-0.11 0.05-0.22 0.13-0.34 0.08-0.12 0.12-0.2 0.12-0.24 0-0.05-0.01-0.09-0.04-0.12 -0.03-0.03-0.07-0.05-0.12-0.05 -0.25 0-0.52 0.16-0.81 0.47 -0.47 0.5-0.88 1.3-1.22 2.39h1.29l-0.28 0.76H10.78z" fill="#404141"/></g></svg>