<?xml version="1.0" encoding="utf-8"?>

<!DOCTYPE svg PUBLIC "-//W3C//DTD SVG 1.1//EN" "http://www.w3.org/Graphics/SVG/1.1/DTD/svg11.dtd">
<svg version="1.1" xmlns="http://www.w3.org/2000/svg" xmlns:xlink="http://www.w3.org/1999/xlink" x="0px" y="0px" width="22px"
	 height="22px" viewBox="0 0 22 22" enable-background="new 0 0 22 22" xml:space="preserve">
<g id="Layer_1">
	<g>
		<path fill="#F2F2F0" d="M5,19.2c-1.8,0-3.2-1.5-3.2-3.2V6c0-1.8,1.5-3.2,3.2-3.2h12c1.8,0,3.2,1.5,3.2,3.2v10
			c0,1.8-1.5,3.2-3.2,3.2H5z"/>
		<path fill="#BFBFBD" d="M17,3c1.7,0,3,1.4,3,3v10c0,1.6-1.3,3-3,3H5c-1.7,0-3-1.4-3-3V6c0-1.6,1.3-3,3-3H17 M17,2.5H5
			C3.1,2.5,1.5,4.1,1.5,6v10c0,1.9,1.6,3.5,3.5,3.5h12c1.9,0,3.5-1.6,3.5-3.5V6C20.5,4.1,18.9,2.5,17,2.5L17,2.5z"/>
	</g>
	<text transform="matrix(1 0 0 1 11 18)" fill="#4E4E4F" font-family="'TimesNewRomanPS-BoldItalicMT'" font-size="11">x </text>
	<g>
		<path d="M22,0v22H0V0H22 M23-1h-1H0h-1v1v22v1h1h22h1v-1V0V-1L23-1z"/>
	</g>
	<rect id="_x3C_Slice_x3E__9_" fill="none" width="22" height="22"/>
	<text transform="matrix(1.2 0 0 1 7 14)" fill="#404141" font-family="'TimesNewRomanPS-BoldItalicMT'" font-size="11.9">f </text>
</g>
</svg>
