<?xml version="1.0" standalone="no"?>
<!DOCTYPE svg PUBLIC "-//W3C//DTD SVG 1.1//EN" "http://www.w3.org/Graphics/SVG/1.1/DTD/svg11.dtd" >
<svg xmlns="http://www.w3.org/2000/svg">
<metadata></metadata>
<defs>
<font id="iconsiconic" horiz-adv-x="2048" >
<font-face units-per-em="2048" ascent="2048" descent="0" />
<missing-glyph horiz-adv-x="500" />
<glyph unicode="&#xd;" horiz-adv-x="680" />
<glyph unicode="&#x25fc;" horiz-adv-x="1280" d="M0 0v0v0v0v0z" />
<glyph unicode="&#xe000;" d="M768 1792h1280v-1792h-1280v256h1024v1280h-1024v256zM1024 1280l512 -384l-512 -384v256h-1024v256h1024v256z" />
<glyph unicode="&#xe001;" d="M768 1792h1280v-1792h-1280v256h1024v1280h-1024v256zM512 1280v-256h1024v-256h-1024v-256l-512 384z" />
<glyph unicode="&#xe002;" d="M896 1792q371 0 633.5 -262.5t262.5 -633.5v-128h256l-512 -512l-512 512h256v128q0 266 -187 453t-453 187t-453 -187t-187 -453q0 371 262.5 633.5t633.5 262.5z" />
<glyph unicode="&#xe003;" d="M1152 1792q371 0 633.5 -262.5t262.5 -633.5q0 266 -187 453t-453 187t-453 -187t-187 -453v-128h256l-512 -512l-512 512h256v128q0 371 262.5 633.5t633.5 262.5z" />
<glyph unicode="&#xe004;" d="M0 1792h2048v-256h-2048v256zM256 1280h1536v-256h-1536v256zM0 768h2048v-256h-2048v256zM256 256h1536v-256h-1536v256z" />
<glyph unicode="&#xe005;" d="M0 1792h2048v-256h-2048v256zM0 1280h1536v-256h-1536v256zM0 768h2048v-256h-2048v256zM0 256h1536v-256h-1536v256z" />
<glyph unicode="&#xe006;" d="M0 1792h2048v-256h-2048v256zM512 1280h1536v-256h-1536v256zM0 768h2048v-256h-2048v256zM512 256h1536v-256h-1536v256z" />
<glyph unicode="&#xe007;" d="M1024 1792q276 0 527 -151l-192 -576l-824 599q236 128 489 128zM320 1505l489 -353l-794 -568q-15 92 -15 184q0 430 320 737zM1761 1472q287 -300 287 -704q0 -92 -41 -256h-558zM553 648l287 -889q-241 44 -434.5 196.5t-300.5 372.5zM952 256h953 q-125 -212 -334 -346.5t-460 -157.5z" />
<glyph unicode="&#xe008;" horiz-adv-x="1536" d="M512 2048h256v-1280h512l-632 -768l-648 768h512v1280z" />
<glyph unicode="&#xe009;" d="M1024 2048q425 0 724.5 -299.5t299.5 -724.5t-299.5 -724.5t-724.5 -299.5t-724.5 299.5t-299.5 724.5t299.5 724.5t724.5 299.5zM768 1792v-768h-512l768 -768l768 768h-512v768h-512z" />
<glyph unicode="&#xe00a;" d="M1024 2048q425 0 724.5 -299.5t299.5 -724.5t-299.5 -724.5t-724.5 -299.5t-724.5 299.5t-299.5 724.5t299.5 724.5t724.5 299.5zM1024 1792l-768 -768l768 -768v512h768v512h-768v512z" />
<glyph unicode="&#xe00b;" d="M1024 2048q425 0 724.5 -299.5t299.5 -724.5t-299.5 -724.5t-724.5 -299.5t-724.5 299.5t-299.5 724.5t299.5 724.5t724.5 299.5zM1024 1792v-512h-768v-512h768v-512l768 768z" />
<glyph unicode="&#xe00c;" d="M1024 2048q425 0 724.5 -299.5t299.5 -724.5t-299.5 -724.5t-724.5 -299.5t-724.5 299.5t-299.5 724.5t299.5 724.5t724.5 299.5zM1024 1792l-768 -768h512v-768h512v768h512z" />
<glyph unicode="&#xe00d;" d="M768 1536v-512h1280v-256h-1280v-512l-768 632z" />
<glyph unicode="&#xe00e;" d="M1280 1536l768 -632l-768 -648v512h-1280v256h1280v512z" />
<glyph unicode="&#xe00f;" horiz-adv-x="1536" d="M512 2048h512v-1280h512l-760 -768l-776 768h512v1280z" />
<glyph unicode="&#xe010;" d="M768 1792v-512h1280v-512h-1280v-512l-768 760z" />
<glyph unicode="&#xe011;" d="M1280 1792l768 -760l-768 -776v512h-1280v512h1280v512z" />
<glyph unicode="&#xe012;" horiz-adv-x="1536" d="M760 2048l776 -768h-512v-1280h-512v1280h-512z" />
<glyph unicode="&#xe013;" horiz-adv-x="1536" d="M632 2048l648 -768h-512v-1280h-256v1280h-512z" />
<glyph unicode="&#xe014;" d="M1024 2048h256v-2048h-256v2048zM512 1792h256v-1536h-256v1536zM1536 1536h256v-1024h-256v1024zM0 1280h256v-512h-256v512z" />
<glyph unicode="&#xe015;" d="M297 1536l184 -184q-225 -225 -225 -535q0 -320 225 -546l-184 -184q-141 141 -219 330.5t-78 399.5q0 422 297 719zM1751 1536q297 -297 297 -719q0 -210 -78 -399.5t-219 -330.5l-184 184q225 225 225 546q0 310 -225 535zM663 1178l177 -185q-72 -72 -72 -176 q0 -113 72 -185l-177 -184q-151 151 -151 369q0 210 151 361zM1385 1175q151 -151 151 -358q0 -218 -151 -369l-177 184q72 72 72 185q0 105 -72 176z" />
<glyph unicode="&#xe016;" horiz-adv-x="1024" d="M512 2048q210 0 361 -151t151 -361t-151 -361t-361 -151t-361 151t-151 361t151 361t361 151zM256 817q138 -49 256 -49q115 0 256 49v-817l-256 256l-256 -256v817z" />
<glyph unicode="&#xe017;" d="M1024 2048q422 0 723 -301t301 -723t-301 -723t-723 -301t-723 301t-301 723t301 723t723 301zM1024 1792q-317 0 -542.5 -225.5t-225.5 -542.5q0 -248 143 -448l1073 1073q-200 143 -448 143zM1649 1472l-1073 -1073q200 -143 448 -143q317 0 542.5 225.5t225.5 542.5 q0 248 -143 448z" />
<glyph unicode="&#xe018;" d="M0 1792h256v-1536h1792v-256h-2048v1792zM1280 1792h512v-1280h-512v1280zM512 1280h512v-768h-512v768z" />
<glyph unicode="&#xe019;" d="M1016 2048q44 3 87 -33q3 -3 141 -168t292 -347t184 -220h328v-256h-256v-937q0 -36 -25.5 -61.5t-61.5 -25.5h-1362q-36 0 -61.5 25.5t-25.5 61.5v937h-256v256h328l599 719q35 44 89 49zM1024 1720l-369 -440h738zM640 768q-54 0 -91 -37t-37 -91v-256q0 -54 37 -91 t91 -37t91 37t37 91v256q0 54 -37 91t-91 37zM1408 768q-54 0 -91 -37t-37 -91v-256q0 -54 37 -91t91 -37t91 37t37 91v256q0 54 -37 91t-91 37z" />
<glyph unicode="&#xe01a;" d="M23 1792h1746q23 0 23 -26v-486h256v-512h-256v-489q0 -23 -23 -23h-1746q-23 0 -23 23v1490q0 23 23 23zM256 1536v-1024h1280v1024h-1280z" />
<glyph unicode="&#xe01b;" d="M23 1792h1746q23 0 23 -26v-486h256v-512h-256v-489q0 -23 -23 -23h-1746q-23 0 -23 23v1490q0 23 23 23z" />
<glyph unicode="&#xe01c;" d="M236 1664q0 46 33 87t82 41h7h13h13h1280q54 0 91 -37t37 -91t-37 -91t-91 -37h-128v-361q364 -689 425 -791q87 -141 87 -271q0 -159 -105 -264h-8q-110 -105 -256 -105h-1310q-159 0 -264 105t-105 264q0 131 87 271q61 102 425 791v361h-128q-3 0 -10.5 -1.5 t-9.5 -1.5q-54 0 -91 38.5t-37 92.5zM1280 1536h-512v-415l-15 -25q-161 -315 -305 -584h1152l-305 584l-15 25v415z" />
<glyph unicode="&#xe01d;" d="M1024 2048q210 0 361 -151t151 -361q0 -397 343 -681q169 -141 169 -343h-2048q0 202 169 343q343 284 343 681q0 210 151 361t361 151zM768 256h512q0 -105 -75.5 -180.5t-180.5 -75.5t-180.5 75.5t-75.5 180.5z" />
<glyph unicode="&#xe01e;" horiz-adv-x="1536" d="M384 2048h128l896 -640l-576 -376l576 -392l-896 -640h-128v640l-192 -192l-192 192l384 384l-384 384l192 192l192 -192v640zM640 1664v-512l384 256zM640 896v-512l384 256z" />
<glyph unicode="&#xe01f;" d="M0 2048h1280q210 0 361 -151t151 -361q0 -179 -113 -320q166 -79 267.5 -233t101.5 -343q0 -266 -187 -453t-453 -187h-1408v256q105 0 180.5 75.5t75.5 180.5v1024q0 105 -75.5 180.5t-180.5 75.5v256zM768 1792v-512h256q105 0 180.5 75.5t75.5 180.5t-75.5 180.5 t-180.5 75.5h-256zM768 1024v-768h384q159 0 271.5 112.5t112.5 271.5t-112.5 271.5t-271.5 112.5h-384z" />
<glyph unicode="&#xe020;" horiz-adv-x="1536" d="M768 2048v-768h512l-768 -1280v768h-512z" />
<glyph unicode="&#xe021;" d="M256 2048h768v-768l256 256l256 -256v768h128q54 0 91 -37t37 -91v-1408h-1408q-54 0 -91 -37t-37 -91t37 -91t91 -37h1408v-256h-1408q-159 0 -271.5 112.5t-112.5 271.5v1408l8 49q15 74 70 129t129 70z" />
<glyph unicode="&#xe022;" horiz-adv-x="1024" d="M0 2048h1024v-2048l-512 512l-512 -512v2048z" />
<glyph unicode="&#xe023;" d="M0 2048h2048v-256h-2048v256zM0 1536h768v-264h520v264h760v-1513q0 -23 -23 -23h-2002q-23 0 -23 23v1513z" />
<glyph unicode="&#xe024;" d="M768 2048h512q105 0 180.5 -75.5t75.5 -180.5v-256h489q23 0 23 -23v-617q0 -54 -37 -91t-91 -37h-1792q-54 0 -91 37t-37 91v617q0 23 23 23h489v256q0 105 75.5 180.5t180.5 75.5zM768 1792v-256h512v256h-512zM0 535q61 -23 128 -23h1792q67 0 128 23v-512 q0 -23 -23 -23h-2002q-23 0 -23 23v512z" />
<glyph unicode="&#xe025;" horiz-adv-x="1536" d="M768 2048q241 0 376.5 -135.5t135.5 -376.5h-256q0 128 -64 192t-192 64q-120 0 -184 -79q-72 -90 -72 -241q0 -72 32 -224t40 -224h440v-256h-456q-59 -248 -289 -512h1257v-256h-1536v312l41 31q223 223 271 425h-312v256h320q-5 33 -24.5 124t-29.5 168t-10 156 q0 241 128 399q141 177 384 177z" />
<glyph unicode="&#xe026;" d="M87 1792h10h8h10h13h1792q54 0 91 -37t37 -91v-1792q0 -54 -37 -91t-91 -37h-1792q-54 0 -91 37t-37 91v1792v5q0 38 25.5 75.5t61.5 47.5zM384 1536q-54 0 -91 -37t-37 -91t37 -91t91 -37t91 37t37 91t-37 91t-91 37zM896 1536q-54 0 -91 -37t-37 -91t37 -91t91 -37h768 q54 0 91 37t37 91t-37 91t-91 37h-768zM256 1024v-1024h1536v1024h-1536z" />
<glyph unicode="&#xe027;" d="M1905 2040l15 -7l113 -113q13 -13 0 -31l-681 -960l-39 -33l-64 -31q-44 138 -144.5 239.5t-239.5 144.5l31 64l33 39l960 681zM681 1024q143 0 243 -100t100 -243q0 -282 -199.5 -481.5t-481.5 -199.5q-189 0 -343 87q156 90 249.5 248.5t93.5 345.5q0 143 98.5 243 t239.5 100z" />
<glyph unicode="&#xe028;" d="M23 1155q0 46 34.5 87t83.5 41q36 0 66 -18l336 -169l74 56q-72 74 -79.5 187t38.5 211.5t139.5 170t203.5 71.5t203.5 -70.5t139.5 -169t39.5 -211t-77.5 -189.5l71 -56l336 169q28 18 53 18q54 0 91 -37.5t37 -90.5q0 -33 -20 -66.5t-49 -49.5l-294 -143 q51 -90 64 -128h174q54 0 91 -37t37 -91t-37 -91t-91 -37h-128q0 -87 -15 -169l199 -102q38 -10 66.5 -47.5t28.5 -78.5q0 -54 -37 -91t-91 -37q-41 0 -79 28l-167 90q-95 -184 -263 -282q-154 84 -154 185v345v11v12v16v12v13v223q0 54 -37 91t-91 37q-46 0 -82 -29.5 t-46 -72.5q3 -8 3 -28.5t-3 -28.5v-210v-10v-13v-368q0 -102 -151 -185q-172 105 -264 282l-169 -90q-38 -28 -79 -28q-54 0 -91 37t-37 91q0 41 28 78t67 48l199 102q-15 82 -15 169h-128h-13q-54 0 -91 37t-37 91q0 51 37 89.5t91 38.5h13h177q13 38 64 128l-297 143 q-31 13 -51.5 46.5t-20.5 69.5z" />
<glyph unicode="&#xe029;" d="M1536 1792h233q23 0 23 -23v-1490q0 -23 -23 -23h-233v1536zM538 1288l742 376v-1280l-640 320v-8q-59 0 -72 -56l192 -456q20 -49 2.5 -102.5t-66 -74t-102.5 -2.5t-74 67l-264 696h-233q-23 0 -23 23v466q0 23 23 23h466z" />
<glyph unicode="&#xe02a;" d="M23 2048h1746q23 0 23 -23v-2002q0 -23 -23 -23h-1746q-23 0 -23 23v2002q0 23 23 23zM256 1792v-512h1280v512h-1280zM256 1024v-256h256v256h-256zM768 1024v-256h256v256h-256zM1280 1024v-768h256v768h-256zM256 512v-256h256v256h-256zM768 512v-256h256v256h-256z " />
<glyph unicode="&#xe02b;" d="M0 2048h1792v-512h-1792v512zM0 1280h1792v-1257q0 -23 -23 -23h-1746q-23 0 -23 23v1257zM256 1024v-256h256v256h-256zM768 1024v-256h256v256h-256zM1280 1024v-256h256v256h-256zM256 512v-256h256v256h-256zM768 512v-256h256v256h-256z" />
<glyph unicode="&#xe02c;" d="M1047 2048h466q20 0 31 -23l240 -466q10 -23 31 -23h210q23 0 23 -23v-1490q0 -23 -23 -23h-2002q-23 0 -23 23v1129q0 159 112.5 271.5t271.5 112.5h361q20 0 31 23l240 466q11 23 31 23zM384 1280q-54 0 -91 -37t-37 -91t37 -91t91 -37t91 37t37 91t-37 91t-91 37z M1280 1280q-210 0 -361 -151t-151 -361t151 -361t361 -151t361 151t151 361t-151 361t-361 151zM1280 1024q105 0 180.5 -75.5t75.5 -180.5t-75.5 -180.5t-180.5 -75.5t-180.5 75.5t-75.5 180.5t75.5 180.5t180.5 75.5z" />
<glyph unicode="&#xe02d;" d="M0 1536h2048l-1024 -1024z" />
<glyph unicode="&#xe02e;" horiz-adv-x="1024" d="M1024 2048v-2048l-1024 1024z" />
<glyph unicode="&#xe02f;" horiz-adv-x="1024" d="M0 2048l1024 -1024l-1024 -1024v2048z" />
<glyph unicode="&#xe030;" d="M1024 1536l1024 -1024h-2048z" />
<glyph unicode="&#xe031;" d="M0 1408q0 46 34.5 87t83.5 41h7h13h10h512q33 0 66.5 -22t46.5 -50l97 -184h1137q26 0 36 -19t2 -45l-207 -640q-8 -26 -34.5 -45t-55.5 -19h-896q-26 0 -52.5 19t-34.5 45q-36 105 -105 320t-102 320l-26 64h-384q-3 0 -9 -1.5t-8 -1.5q-54 0 -92.5 38.5t-38.5 92.5z M916.5 256q53.5 0 90.5 -37t37 -91t-37 -91t-90.5 -37t-91 37t-37.5 91t37.5 91t91 37zM1684.5 256q53.5 0 90.5 -37t37 -91t-37 -91t-90.5 -37t-91 37t-37.5 91t37.5 91t91 37z" />
<glyph unicode="&#xe032;" d="M0 1792h1280v-256h-768v-768h-256l-256 -256v1280zM768 1280h1280v-1280l-256 256h-1024v1024z" />
<glyph unicode="&#xe033;" d="M1641 1792l366 -361l-1262 -1262q-82 87 -175.5 181.5t-208.5 208.5t-177 178l-184 182l361 361q192 -195 392 -384l281.5 281.5l330 330t276.5 284.5z" />
<glyph unicode="&#xe034;" d="M384 1536l640 -640l640 640l384 -384l-1024 -1024l-1024 1024z" />
<glyph unicode="&#xe035;" horiz-adv-x="1536" d="M1024 2048l384 -384l-640 -640l640 -640l-384 -384l-1024 1024z" />
<glyph unicode="&#xe036;" horiz-adv-x="1536" d="M384 2048l1024 -1024l-1024 -1024l-384 384l640 640l-640 640z" />
<glyph unicode="&#xe037;" d="M1024 1536l1024 -1024l-384 -384l-640 640l-640 -640l-384 384z" />
<glyph unicode="&#xe038;" d="M1024 2048q425 0 724.5 -299.5t299.5 -724.5t-299.5 -724.5t-724.5 -299.5t-724.5 299.5t-299.5 724.5t299.5 724.5t724.5 299.5zM1536 1592l-640 -640l-256 256l-184 -184l440 -440l824 824z" />
<glyph unicode="&#xe039;" d="M1024 2048q425 0 724.5 -299.5t299.5 -724.5t-299.5 -724.5t-724.5 -299.5t-724.5 299.5t-299.5 724.5t299.5 724.5t724.5 299.5zM640 1592l-184 -184l384 -384l-384 -384l184 -184l384 384l384 -384l184 184l-384 384l384 384l-184 184l-384 -384z" />
<glyph unicode="&#xe03a;" d="M896 2048q54 0 91 -37t37 -91v-128h192q28 0 46 -18t18 -46v-192h-768v192q0 28 18 46t46 18h192v128q0 54 37 91t91 37zM64 1792h192v-512h1280v512h192q28 0 46 -18t18 -46v-1664q0 -28 -18 -46t-46 -18h-1664q-28 0 -46 18t-18 46v1664q0 28 18 46t46 18z" />
<glyph unicode="&#xe03b;" d="M1024 2048q422 0 723 -301t301 -723t-301 -723t-723 -301t-723 301t-301 723t301 723t723 301zM1024 1792q-317 0 -542.5 -225.5t-225.5 -542.5t225.5 -542.5t542.5 -225.5t542.5 225.5t225.5 542.5t-225.5 542.5t-542.5 225.5zM896 1536h256v-463q87 -92 184 -177 l-184 -184q-92 102 -215 225l-41 31v568z" />
<glyph unicode="&#xe03c;" d="M1152 2048q266 0 453 -187t187 -453v-128q110 -41 183 -150t73 -234q0 -67 -23 -128h-489v128q0 159 -112.5 271.5t-271.5 112.5t-271.5 -112.5t-112.5 -271.5v-128h-696q-72 125 -72 256q0 210 151 361t361 151q44 220 227 366t413 146zM1111 1024h8h10q3 0 10.5 1.5 t12.5 1.5q54 0 91 -37.5t37 -90.5v-3v-384h384l-512 -512l-512 512h384v384v5q0 38 25.5 75.5t61.5 47.5z" />
<glyph unicode="&#xe03d;" d="M1152 2048q266 0 453 -187t187 -453v-128q110 -41 183 -150t73 -234q0 -67 -23 -128h-361l-512 512l-512 -512h-568q-72 125 -72 256q0 210 151 361t361 151q44 220 227 366t413 146zM1152 896l640 -640h-512v-128q0 -54 -37 -91t-91 -37t-91 37t-37 91v128h-512z" />
<glyph unicode="&#xe03e;" d="M1152 1792q266 0 453 -187t187 -453v-128q110 -41 183 -150t73 -234q0 -159 -112.5 -271.5t-271.5 -112.5h-1152q-210 0 -361 151t-151 361t151 361t361 151q44 220 227 366t413 146z" />
<glyph unicode="&#xe03f;" d="M640 2048q315 0 512 -256q-271 0 -497.5 -147t-334.5 -388q-148 -41 -256 -120q-64 133 -64 271q0 266 187 453t453 187zM1152 1536q266 0 453 -187t187 -453v-128q110 -41 183 -150t73 -234q0 -159 -112.5 -271.5t-271.5 -112.5h-1152q-210 0 -361 151t-151 361t151 361 t361 151q44 220 227 366t413 146z" />
<glyph unicode="&#xe040;" d="M1280 1792h256l-768 -1536h-256zM256 1536h256l-256 -512l256 -512h-256l-256 512zM1536 1536h256l256 -512l-256 -512h-256l256 512z" />
<glyph unicode="&#xe041;" d="M896 2048h256l128 -305l72 -30l304 128l185 -185l-128 -304l30 -72l305 -128v-256l-305 -128l-30 -72l128 -304l-185 -185l-304 128l-72 -30l-128 -305h-256l-128 305l-72 30l-304 -128l-185 185l128 304l-30 72l-305 128v256l305 128l30 72l-128 304l185 185l304 -128 l72 30zM1024 1408q-159 0 -271.5 -112.5t-112.5 -271.5t112.5 -271.5t271.5 -112.5t271.5 112.5t112.5 271.5t-112.5 271.5t-271.5 112.5z" />
<glyph unicode="&#xe042;" d="M0 2048h2048v-512h-2048v512zM512 1280h1024l-512 -512zM0 256h2048v-256h-2048v256z" />
<glyph unicode="&#xe043;" d="M0 2048h256v-2048h-256v2048zM1536 2048h512v-2048h-512v2048zM1280 1536v-1024l-512 512z" />
<glyph unicode="&#xe044;" d="M0 2048h512v-2048h-512v2048zM1792 2048h256v-2048h-256v2048zM768 1536l512 -512l-512 -512v1024z" />
<glyph unicode="&#xe045;" d="M0 2048h2048v-256h-2048v256zM1024 1280l512 -512h-1024zM0 512h2048v-512h-2048v512z" />
<glyph unicode="&#xe046;" d="M384 1792q159 0 271.5 -112.5t112.5 -271.5v-128h256v128q0 159 112.5 271.5t271.5 112.5t271.5 -112.5t112.5 -271.5t-112.5 -271.5t-271.5 -112.5h-128v-256h128q159 0 271.5 -112.5t112.5 -271.5t-112.5 -271.5t-271.5 -112.5t-271.5 112.5t-112.5 271.5v128h-256 v-128q0 -159 -112.5 -271.5t-271.5 -112.5t-271.5 112.5t-112.5 271.5t112.5 271.5t271.5 112.5h128v256h-128q-159 0 -271.5 112.5t-112.5 271.5t112.5 271.5t271.5 112.5zM384 1536q-54 0 -91 -37t-37 -91t37 -91t91 -37h128v128q0 54 -37 91t-91 37zM1408 1536 q-54 0 -91 -37t-37 -91v-128h128q54 0 91 37t37 91t-37 91t-91 37zM768 1024v-256h256v256h-256zM384 512q-54 0 -91 -37t-37 -91t37 -91t91 -37t91 37t37 91v128h-128zM1280 512v-128q0 -54 37 -91t91 -37t91 37t37 91t-37 91t-91 37h-128z" />
<glyph unicode="&#xe047;" d="M0 2025q0 23 23 23h2002q23 0 23 -26v-2022l-512 512h-1513q-23 0 -23 23v1490z" />
<glyph unicode="&#xe048;" d="M1024 2048q422 0 723 -301t301 -723t-301 -723t-723 -301t-723 301t-301 723t301 723t723 301zM1024 1792q-317 0 -542.5 -225.5t-225.5 -542.5t225.5 -542.5t542.5 -225.5t542.5 225.5t225.5 542.5t-225.5 542.5t-542.5 225.5zM1536 1536l-256 -768l-768 -256l256 768z M1024 1152q-54 0 -91 -37t-37 -91t37 -91t91 -37t91 37t37 91t-37 91t-91 37z" />
<glyph unicode="&#xe049;" d="M1024 2048q422 0 723 -301t301 -723t-301 -723t-723 -301t-723 301t-301 723t301 723t723 301zM1024 1792v-1536q317 0 542.5 225.5t225.5 542.5t-225.5 542.5t-542.5 225.5z" />
<glyph unicode="&#xe04a;" d="M0 2048h2048v-256h-2048v256zM0 1536h1280v-256h-1280v256zM0 768h2048v-256h-2048v256zM0 256h1536v-256h-1536v256zM1920 256q54 0 91 -37t37 -91t-37 -91t-91 -37t-91 37t-37 91t37 91t91 37z" />
<glyph unicode="&#xe04b;" d="M64 1792h1920q28 0 46 -18t18 -46v-192h-2048v192q0 28 18 46t46 18zM0 1280h2048v-960q0 -28 -18 -46t-46 -18h-1920q-28 0 -46 18t-18 46v960zM256 768v-256h256v256h-256zM768 768v-256h256v256h-256z" />
<glyph unicode="&#xe04c;" d="M256 2048h256v-256h1152l256 256l128 -128l-256 -256v-1152h256v-256h-256v-256h-256v256h-1280v1280h-256v256h256v256zM512 1536v-896l896 896h-896zM1536 1408l-896 -896h896v896z" />
<glyph unicode="&#xe04d;" d="M1024 2048q422 0 723 -301t301 -723t-301 -723t-723 -301t-723 301t-301 723t301 723t723 301zM1024 1792q-317 0 -542.5 -225.5t-225.5 -542.5t225.5 -542.5t542.5 -225.5t542.5 225.5t225.5 542.5t-225.5 542.5t-542.5 225.5zM1024 1536q54 0 91 -37t37 -91t-37 -91 t-91 -37t-91 37t-37 91t37 91t91 37zM512 1157q0 38 25.5 75.5t61.5 47.5h8h7h21q56 0 92 -41l233 -230l64 15q105 0 180.5 -75.5t75.5 -180.5t-75.5 -180.5t-180.5 -75.5t-180.5 75.5t-75.5 180.5l15 64l-230 233q-41 36 -41 92zM1408 1280q54 0 91 -37t37 -91t-37 -91 t-91 -37t-91 37t-37 91t37 91t91 37z" />
<glyph unicode="&#xe04e;" d="M768 2048h512v-768h512l-768 -768l-768 768h512v768zM0 256h2048v-256h-2048v256z" />
<glyph unicode="&#xe04f;" d="M0 2048h2048v-256h-2048v256zM1024 1536l768 -768h-512v-768h-512v768h-512z" />
<glyph unicode="&#xe050;" d="M512 1792h1536v-1536h-1536l-512 768zM896 1592l-184 -184l384 -384l-384 -384l184 -184l384 384l384 -384l184 184l-384 384l384 384l-184 184l-384 -384z" />
<glyph unicode="&#xe051;" d="M1024 1792q422 0 723 -301t301 -723h-256q0 317 -225.5 542.5t-542.5 225.5t-542.5 -225.5t-225.5 -542.5h-256q0 422 301 723t723 301zM873 1257l151 -225l151 225q159 -49 260 -183t101 -306q0 -210 -151 -361t-361 -151t-361 151t-151 361q0 172 101 306t260 183z" />
<glyph unicode="&#xe052;" d="M0 2048h768v-1024h1024v-1024h-1792v2048zM1024 2048l768 -768h-768v768zM256 1536v-256h256v256h-256zM256 1024v-256h256v256h-256zM256 512v-256h1024v256h-1024z" />
<glyph unicode="&#xe053;" horiz-adv-x="1536" d="M512 1792h256v-256h192q125 0 207 -56q113 -79 113 -200v-256h-256v241q-20 15 -64 15h-640q-28 0 -46 -18t-18 -46v-128q0 -28 29.5 -66.5t57.5 -46.5l658 -166q125 -31 202 -130.5t77 -230.5v-128q0 -131 -94.5 -225.5t-225.5 -94.5h-192v-256h-256v256h-192 q-125 0 -207 56q-113 79 -113 200v256h256v-241q20 -15 64 -15h640q28 0 46 18t18 46v128q0 28 -29.5 66.5t-57.5 46.5l-658 166q-125 31 -202 130.5t-77 230.5v128q0 131 94.5 225.5t225.5 94.5h192v256z" />
<glyph unicode="&#xe054;" d="M0 1792h768v-768l-768 -768v1536zM1280 1792h768v-768l-768 -768v1536z" />
<glyph unicode="&#xe055;" d="M768 1792v-1536h-768v768zM2048 1792v-1536h-768v768z" />
<glyph unicode="&#xe056;" d="M768 1792v-256q-212 0 -362 -150t-150 -362h512v-768h-768v768q0 317 225.5 542.5t542.5 225.5zM2048 1792v-256q-212 0 -362 -150t-150 -362h512v-768h-768v768q0 317 225.5 542.5t542.5 225.5z" />
<glyph unicode="&#xe057;" d="M0 1792h768v-768q0 -317 -225.5 -542.5t-542.5 -225.5v256q212 0 362 150t150 362h-512v768zM1280 1792h768v-768q0 -317 -225.5 -542.5t-542.5 -225.5v256q212 0 362 150t150 362h-512v768z" />
<glyph unicode="&#xe058;" horiz-adv-x="1536" d="M768 2048l87 -87q33 -33 84.5 -88t165.5 -201t202 -288t158.5 -329t70.5 -343q0 -317 -225.5 -542.5t-542.5 -225.5t-542.5 225t-225.5 543q0 156 70.5 343t158.5 329t202 288t165.5 201t84.5 88zM384 840q-54 0 -91 -37.5t-37 -90.5q0 -210 151 -361t361 -151 q54 0 91 37t37 90.5t-37 91t-91 37.5q-105 0 -180.5 75.5t-75.5 180.5q0 54 -37 91t-91 37z" />
<glyph unicode="&#xe059;" d="M1024 2048l1024 -1280h-2048zM0 512h2048v-512h-2048v512z" />
<glyph unicode="&#xe05a;" horiz-adv-x="1536" d="M768 2048l768 -768h-1536zM0 768h1536l-768 -768z" />
<glyph unicode="&#xe05b;" d="M0 1280h512v-512h-512v512zM768 1280h512v-512h-512v512zM1536 1280h512v-512h-512v512z" />
<glyph unicode="&#xe05c;" d="M0 1792h2048v-256l-1024 -512l-1024 512v256zM0 1280l1024 -512l1024 512v-1024h-2048v1024z" />
<glyph unicode="&#xe05d;" d="M1024 2048l1024 -512v-1536h-2048v1536zM1024 1761l-768 -384v-481l768 -384l768 384v481zM512 1280h1024v-256l-512 -256l-512 256v256z" />
<glyph unicode="&#xe05e;" d="M1536 1792q253 0 489 -128l-41 -271q-200 143 -448 143t-444 -142t-275 -370h847l-41 -256h-855q0 -115 49 -256h760l-41 -256h-568q230 -256 568 -256q292 0 512 200v-313q-241 -143 -512 -143q-276 0 -509 139.5t-372 372.5h-655l49 256h504q-41 164 -41 256h-512 l64 256h489q87 335 358.5 551.5t624.5 216.5z" />
<glyph unicode="&#xe05f;" d="M0 1792h1792v-256h-1792v256zM0 1280h1280v-256h-1280v256zM0 768h2048v-256h-2048v256zM0 256h256v-256h-256v256zM512 256h256v-256h-256v256zM1024 256h256v-256h-256v256z" />
<glyph unicode="&#xe060;" d="M0 2048h2048v-256h-2048v256zM512 1536h1024l-512 -512zM0 512h2048v-512h-2048v512z" />
<glyph unicode="&#xe061;" d="M0 2048h256v-2048h-256v2048zM1536 2048h512v-2048h-512v2048zM512 1536l512 -512l-512 -512v1024z" />
<glyph unicode="&#xe062;" d="M0 2048h512v-2048h-512v2048zM1792 2048h256v-2048h-256v2048zM1536 1536v-1024l-512 512z" />
<glyph unicode="&#xe063;" d="M0 2048h2048v-512h-2048v512zM1024 1024l512 -512h-1024zM0 256h2048v-256h-2048v256z" />
<glyph unicode="&#xe064;" d="M0 2048h512v-256h-256v-1536h1536v256h256v-512h-2048v2048zM1024 2048h1024v-1024l-384 384l-640 -640l-256 256l640 640z" />
<glyph unicode="&#xe065;" d="M1032 1792q128 0 254.5 -42t224 -110t185.5 -150t151 -164t109 -150t69 -111l23 -41q-15 -31 -44.5 -83.5t-130.5 -184t-211.5 -233t-282 -184.5t-347.5 -83q-182 0 -355 79.5t-290.5 192t-208.5 225t-134 192.5l-44 79q8 15 23 43.5t67.5 107.5t111.5 152t151 161.5 t191 152.5t227 107.5t261 43.5zM1024 1536q-210 0 -361 -151t-151 -361t151 -361t361 -151t361 151t151 361t-151 361t-361 151zM1024 1280q26 0 72 -15q-72 -36 -72 -113q0 -54 37 -91t91 -37q77 0 113 72q15 -46 15 -72q0 -105 -75.5 -180.5t-180.5 -75.5t-180.5 75.5 t-75.5 180.5t75.5 180.5t180.5 75.5z" />
<glyph unicode="&#xe066;" horiz-adv-x="2304" d="M847 1792h8h8q8 3 25 3q56 0 95 -44l241 -238l169 166q110 110 271 110t271 -110q113 -113 113 -271.5t-113 -270.5l-166 -169l238 -241q46 -36 46 -97q0 -54 -37 -91t-91 -37q-64 0 -102 51l-159 166l-975 -975h-689v696l960 976l-161 161q-41 36 -41 92q0 38 26.5 75.5 t62.5 47.5zM1144 1231l-801 -806l328 -338l809 809z" />
<glyph unicode="&#xe067;" d="M0 2048h768v-1024h1024v-1024h-1792v2048zM1024 2048l768 -768h-768v768z" />
<glyph unicode="&#xe068;" d="M512 2048q20 -10 55 -30.5t123 -92.5t156 -153.5t123 -215t55 -276.5q0 -118 -55 -237t-133 -210t-161.5 -196t-141 -194.5t-71.5 -207t50 -235.5q-20 10 -55 30.5t-123 92.5t-156 153.5t-123 215t-55 276.5q0 102 42 204.5t105 184.5t136 166.5t135.5 167.5t103.5 167.5 t41 184.5t-51 205zM1280 1280q20 -10 55 -30.5t123 -92.5t156 -153.5t123 -215t55 -276.5q0 -261 -80.5 -386.5t-175.5 -125.5h-768q0 102 42 204.5t105 184.5t136 166.5t135.5 167.5t103.5 167.5t41 184.5t-51 205z" />
<glyph unicode="&#xe069;" d="M0 2048h256v-2048h-256v2048zM512 2048h768v-256h768l-512 -520l512 -504h-1024v256h-512v1024z" />
<glyph unicode="&#xe06a;" horiz-adv-x="1024" d="M384 2048h384l-256 -512h512l-384 -768h384l-768 -768l-256 768h343l169 512h-512z" />
<glyph unicode="&#xe06b;" d="M0 2048h768v-256h1280v-256h-2048v512zM0 1280h2048v-1152q0 -54 -37 -91t-91 -37h-1792q-54 0 -91 37t-37 91v1152z" />
<glyph unicode="&#xe06c;" d="M384 2048q159 0 271.5 -112.5t112.5 -271.5q0 -125 -70.5 -224t-185.5 -137v-302q69 23 128 23h512q54 0 91 37t37 91v151q-115 38 -185.5 137t-70.5 224q0 159 112.5 271.5t271.5 112.5t271.5 -112.5t112.5 -271.5q0 -125 -70.5 -224t-185.5 -137v-151 q0 -159 -112.5 -271.5t-271.5 -112.5h-512q-46 0 -87 -41q97 -46 156 -138t59 -205q0 -159 -112.5 -271.5t-271.5 -112.5t-271.5 112.5t-112.5 271.5q0 125 70.5 224t185.5 137v558q-115 38 -185.5 137t-70.5 224q0 159 112.5 271.5t271.5 112.5z" />
<glyph unicode="&#xe06d;" d="M0 2048h1024l-384 -384l384 -384l-256 -256l-384 384l-384 -384v1024zM1280 1024l384 -384l384 384v-1024h-1024l384 384l-384 384z" />
<glyph unicode="&#xe06e;" d="M256 2048l384 -384l384 384v-1024h-1024l384 384l-384 384zM1024 1024h1024l-384 -384l384 -384l-256 -256l-384 384l-384 -384v1024z" />
<glyph unicode="&#xe06f;" d="M1024 2048q425 0 724.5 -299.5t299.5 -724.5t-299.5 -724.5t-724.5 -299.5t-724.5 299.5t-299.5 724.5t299.5 724.5t724.5 299.5zM1024 1792q-205 0 -392 -113l57 -48q56 -38 39.5 -83t-73.5 -68q-26 -10 -80.5 -10.5t-76.5 -18t-9 -76.5q15 -51 2.5 -61.5t-30.5 1 t-47.5 22t-44.5 -0.5q-49 -46 -17 -131.5t73 -175t23 -92.5l-151 87q-26 0 -41 -26q3 -77 49 -215q23 -8 122.5 -19t133.5 -45q95 -56 164 -190.5t28 -216.5q148 -56 271 -56q192 0 359.5 86t272.5 234q5 51 -24 82t-104 31q-77 0 -138 9t-124 33t-97.5 76.5t-31.5 129.5 q3 38 42.5 94.5t77.5 98.5t60 93.5t-11 79.5q-33 46 -27 62.5t31.5 48.5t25.5 58q0 54 -87 83.5t-89 44.5q-3 13 1 27t18 30.5t21.5 25.5t32 32t32.5 28q-146 49 -241 49zM1615 1513q-90 -26 -162.5 -65.5t-59.5 -70.5q8 -20 77 -19t89 -14q8 -8 19.5 -33.5t20.5 -42 t29.5 -24.5t43.5 21l56 56v8q-41 97 -113 184z" />
<glyph unicode="&#xe070;" d="M1800 2048l248 -256l-1024 -1024l-256 256l-512 -520l-256 256l768 776l256 -256zM0 256h2048v-256h-2048v256z" />
<glyph unicode="&#xe071;" d="M0 1792h256v-256h-256v256zM512 1792h256v-256h-256v256zM1024 1792h256v-256h-256v256zM1536 1792h256v-256h-256v256zM0 1280h256v-256h-256v256zM512 1280h256v-256h-256v256zM1024 1280h256v-256h-256v256zM1536 1280h256v-256h-256v256zM0 768h256v-256h-256v256z M512 768h256v-256h-256v256zM1024 768h256v-256h-256v256zM1536 768h256v-256h-256v256zM0 256h256v-256h-256v256zM512 256h256v-256h-256v256zM1024 256h256v-256h-256v256zM1536 256h256v-256h-256v256z" />
<glyph unicode="&#xe072;" d="M0 2048h512v-512h-512v512zM768 2048h512v-512h-512v512zM1536 2048h512v-512h-512v512zM0 1280h512v-512h-512v512zM768 1280h512v-512h-512v512zM1536 1280h512v-512h-512v512zM0 512h512v-512h-512v512zM768 512h512v-512h-512v512zM1536 512h512v-512h-512v512z" />
<glyph unicode="&#xe073;" d="M0 2048h768v-768h-768v768zM1280 2048h768v-768h-768v768zM0 768h768v-768h-768v768zM1280 768h768v-768h-768v768z" />
<glyph unicode="&#xe074;" d="M49 2048h1694q49 0 49 -49v-847q0 -54 -37 -91t-91 -37h-1536q-54 0 -91 37t-37 91v847q0 49 49 49zM0 791q61 -23 128 -23h1536q67 0 128 23v-742q0 -49 -49 -49h-1694q-49 0 -49 49v742zM1408 512q-54 0 -91 -37t-37 -91t37 -91t91 -37t91 37t37 91t-37 91t-91 37z" />
<glyph unicode="&#xe075;" d="M0 1792h768v-256h-128q-54 0 -91 -37t-37 -91v-384h768v384q0 54 -37 91t-91 37h-128v256h768v-256h-128q-54 0 -91 -37t-37 -91v-1024q0 -54 37 -91t91 -37h128v-256h-768v256h128q54 0 91 37t37 91v384h-768v-384q0 -54 37 -91t91 -37h128v-256h-768v256h128 q54 0 91 37t37 91v1024q0 54 -37 91t-91 37h-128v256z" />
<glyph unicode="&#xe076;" d="M1024 1792q317 0 542.5 -225.5t225.5 -542.5v-256h128q54 0 91 -37t37 -91v-512q0 -54 -37 -91t-91 -37h-256q-54 0 -91 37t-37 91v896q0 212 -150 362t-362 150t-362 -150t-150 -362v-896q0 -54 -37 -91t-91 -37h-256q-54 0 -91 37t-37 91v512q0 54 37 91t91 37h128v256 q0 317 225.5 542.5t542.5 225.5z" />
<glyph unicode="&#xe077;" d="M0 1280q0 210 151 361t361 151t361 -151t151 -361q0 210 151 361t361 151t361 -151t151 -361t-151 -361l-873 -870l-873 870q-151 151 -151 361z" />
<glyph unicode="&#xe078;" d="M1024 1792l1024 -768l-256 8v-1032h-512v512h-512v-512h-512v1024h-256z" />
<glyph unicode="&#xe079;" d="M0 2048h2048v-2048h-2048v2048zM256 1792v-768l256 256l1024 -1024h256v256l-512 512l256 256l256 -256v768h-1536z" />
<glyph unicode="&#xe07a;" d="M49 2048h1950q49 0 49 -49v-1950q0 -49 -49 -49h-1950q-49 0 -49 49v1950q0 49 49 49zM256 1536v-768h256l256 -256h512l256 256h256v768h-1536z" />
<glyph unicode="&#xe07b;" d="M512 1536q141 0 261 -82t251 -230q131 148 251 230t261 82q238 0 375 -153.5t137 -358.5t-137 -358.5t-375 -153.5q-141 0 -261 82t-251 230q-131 -148 -252.5 -230t-259.5 -82q-238 0 -375 153.5t-137 358.5t137 358.5t375 153.5zM512 1280q-131 0 -193.5 -77 t-62.5 -179t62.5 -179t193.5 -77q74 0 155 66.5t188 189.5q-108 123 -188.5 189.5t-154.5 66.5zM1536 1280q-74 0 -155 -66.5t-188 -189.5q108 -123 188.5 -189.5t154.5 -66.5q131 0 193.5 77t62.5 179t-62.5 179t-193.5 77z" />
<glyph unicode="&#xe07c;" horiz-adv-x="1024" d="M768 2048q105 0 180.5 -75.5t75.5 -180.5t-75.5 -180.5t-180.5 -75.5t-180.5 75.5t-75.5 180.5t75.5 180.5t180.5 75.5zM384 1408q159 0 271.5 -114t112.5 -270q0 -95 -128 -349.5t-128 -290.5q0 -54 37 -91t91 -37t91 37t37 91h256q0 -159 -112.5 -271.5t-271.5 -112.5 q-161 0 -272.5 110t-111.5 274q0 95 64 239.5t128 259.5t64 141q0 54 -37 91t-91 37t-91 -37t-37 -91h-256q0 159 112.5 271.5t271.5 112.5z" />
<glyph unicode="&#xe07d;" d="M512 2048h1280v-256h-312l-599 -1505l-16 -31h415v-256h-1280v256h312q87 225 187 476t223 557t189 472l18 31h-417v256z" />
<glyph unicode="&#xe07e;" d="M0 1792h2048v-256h-2048v256zM0 1280h2048v-256h-2048v256zM0 768h2048v-256h-2048v256zM256 256h1536v-256h-1536v256z" />
<glyph unicode="&#xe07f;" d="M0 1792h2048v-256h-2048v256zM0 1280h2048v-256h-2048v256zM0 768h2048v-256h-2048v256zM0 256h1536v-256h-1536v256z" />
<glyph unicode="&#xe080;" d="M0 1792h2048v-256h-2048v256zM0 1280h2048v-256h-2048v256zM0 768h2048v-256h-2048v256zM512 256h1536v-256h-1536v256z" />
<glyph unicode="&#xe081;" d="M1408 2048q266 0 453 -187t187 -453t-187 -453t-453 -187q-82 0 -120 8l-8 -8v-256h-512v-512h-768v512l776 776q-8 38 -8 120q0 266 187 453t453 187zM1536 1792q-105 0 -180.5 -75.5t-75.5 -180.5t75.5 -180.5t180.5 -75.5t180.5 75.5t75.5 180.5t-75.5 180.5 t-180.5 75.5z" />
<glyph unicode="&#xe082;" d="M343 1536h8h10h10h13h1280q54 0 91 -37t37 -91v-896h256v-384q0 -54 -37 -91t-91 -37h-1792q-54 0 -91 37t-37 91v384h256v896v5q0 38 25.5 75.5t61.5 47.5zM512 1280v-768h256v-256h512v256h256v768h-1024z" />
<glyph unicode="&#xe083;" d="M0 2048h1024v-1024h-1024v1024zM1280 1536h256v-1024h-1024v256h768v768zM1792 1024h256v-1024h-1024v256h768v768z" />
<glyph unicode="&#xe084;" horiz-adv-x="1536" d="M863 1777q26 18 53 18q54 0 91 -37.5t37 -90.5q0 -33 -20 -66.5t-49 -49.5l-768 -384q-38 -28 -79 -28q-54 0 -91 37t-37 91q0 41 28 78t67 48zM1119 1393q28 18 53 18q54 0 91 -37.5t37 -90.5q0 -33 -20 -66.5t-49 -49.5l-1024 -512q-38 -28 -79 -28q-54 0 -91 37 t-37 91q0 41 28 78t67 48zM1119 881q28 18 53 18q54 0 91 -37.5t37 -90.5q0 -33 -20 -66.5t-49 -49.5l-271 -143q46 -8 78 -45t32 -83q0 -54 -38.5 -92.5t-91.5 -38.5q-3 0 -10.5 1.5t-10.5 1.5h-512q-49 3 -86 40t-37 88q0 31 19.5 64t47.5 49zM387 -128q0 46 34.5 87 t82.5 41h8h10h13h256q54 0 91 -37t37 -91t-37 -91t-91 -37h-256q-3 0 -10.5 -1.5t-9.5 -1.5q-54 0 -91 38.5t-37 92.5z" />
<glyph unicode="&#xe085;" d="M509 2048h256v-512h-512v256h256v256zM1500 2040h3q87 5 143 -7q141 -31 248 -139q148 -148 148.5 -358t-148.5 -361l-384 -384q-38 -61 -110 -61q-54 0 -91 37t-37 91q0 72 62 110l384 384q77 77 75.5 185.5t-75.5 182.5q-82 77 -191 73t-178 -73l-113 -112 q-38 -61 -107 -62q-54 0 -91 37t-37 91q0 72 61 110l110 113q128 133 328 143zM532 1254q33 41 57 41h7q3 0 10.5 1.5t10.5 1.5q54 0 91 -37t37 -91t-36 -90l-384 -384q-77 -77 -75.5 -185.5t75.5 -182.5q82 -77 191 -73t178 73l112 112q38 61 108 62q54 0 91 -37t37 -91 q0 -72 -62 -110l-110 -113q-79 -79 -192 -120q-133 -49 -279 -17t-251 137q-148 151 -148 361t148 358zM1277 512h512v-256h-256v-256h-256v512z" />
<glyph unicode="&#xe086;" d="M1500 2040q90 5 146 -7q141 -31 248 -139q148 -148 148.5 -358t-148.5 -361l-384 -384q-215 -215 -466 -200q-31 3 -59 7t-44.5 7.5t-38 12.5t-28 13t-24.5 14t-21 10q-67 36 -66 113q0 54 37 92.5t91 38.5q36 0 66 -18q38 -28 105 -34q141 -10 272 121l384 384 q77 77 75.5 185.5t-75.5 182.5q-82 77 -191 73t-178 -73q-38 -61 -110 -61q-54 0 -91 37t-37 91q0 72 61 110q128 133 328 143zM988 1449q56 -3 97 -13t72 -24t49 -19q38 -10 66 -47.5t28 -78.5q0 -54 -37 -91t-91 -37q-41 0 -79 28q-49 23 -120 26q-146 5 -264 -113 l-384 -384q-77 -77 -75.5 -185.5t75.5 -182.5q82 -77 191 -73t178 73q38 61 107 61q54 0 91 -37t37 -91q0 -74 -59 -110q-79 -79 -192 -120q-133 -49 -279 -17t-251 137q-148 151 -148 361t148 358l384 384q205 205 456 195z" />
<glyph unicode="&#xe087;" d="M0 1792h768v-768h-768v768zM1024 1792h1024v-256h-1024v256zM1024 1280h768v-256h-768v256zM0 768h768v-768h-768v768zM1024 768h1024v-256h-1024v256zM1024 256h768v-256h-768v256z" />
<glyph unicode="&#xe088;" d="M128 1792q54 0 91 -37t37 -91t-37 -91t-91 -37t-91 37t-37 91t37 91t91 37zM512 1792h1536v-256h-1536v256zM128 1280q54 0 91 -37t37 -91t-37 -91t-91 -37t-91 37t-37 91t37 91t91 37zM512 1280h1536v-256h-1536v256zM128 768q54 0 91 -37t37 -91t-37 -91t-91 -37 t-91 37t-37 91t37 91t91 37zM512 768h1536v-256h-1536v256zM128 256q54 0 91 -37t37 -91t-37 -91t-91 -37t-91 37t-37 91t37 91t91 37zM512 256h1536v-256h-1536v256z" />
<glyph unicode="&#xe089;" d="M2048 2048l-1024 -2048l-256 768l-768 256z" />
<glyph unicode="&#xe08a;" horiz-adv-x="1536" d="M768 1792q210 0 361 -151t151 -361v-256h256v-1024h-1536v1024h256v256q0 210 151 361t361 151zM768 1536q-108 0 -182 -74t-74 -182v-256h512v256q0 108 -74 182t-182 74z" />
<glyph unicode="&#xe08b;" horiz-adv-x="1536" d="M768 2048q210 0 361 -151t151 -361v-512h256v-1024h-1536v1024h1024v512q0 108 -74 182t-182 74t-182 -74t-74 -182h-256q0 210 151 361t361 151z" />
<glyph unicode="&#xe08c;" d="M1024 1792v-256q-212 0 -362 -150t-150 -362h256l-384 -512l-384 512h256q0 317 225.5 542.5t542.5 225.5zM1664 1536l384 -512h-256q0 -317 -225.5 -542.5t-542.5 -225.5v256q212 0 362 150t150 362h-256z" />
<glyph unicode="&#xe08d;" d="M256 2048h1536v-768h256l-384 -640l-384 640h256v512h-1024v-256h-256v512zM384 1408l384 -640h-256v-512h1024v256h256v-512h-1536v768h-256z" />
<glyph unicode="&#xe08e;" d="M1536 1792l512 -384l-512 -384v256h-1280v-256h-256v256q0 105 75.5 180.5t180.5 75.5h1280v256zM512 768v-256h1280v256h256v-256q0 -105 -75.5 -180.5t-180.5 -75.5h-1280v-256l-512 384z" />
<glyph unicode="&#xe08f;" horiz-adv-x="2304" d="M896 2048q371 0 633.5 -262.5t262.5 -633.5q0 -220 -113 -425q26 -15 41 -31l256 -256q31 -31 54 -85.5t23 -98.5q0 -108 -76.5 -184.5t-184.5 -76.5q-44 0 -99 23t-85 54l-256 256q-13 10 -31 33q-197 -105 -425 -105q-371 0 -633.5 262.5t-262.5 633.5t262.5 633.5 t633.5 262.5zM896 512q271 0 455.5 184.5t184.5 455.5q0 266 -187 453t-453 187t-453 -187t-187 -453t187 -453t453 -187z" />
<glyph unicode="&#xe090;" horiz-adv-x="1536" d="M768 2048q317 0 542.5 -225.5t225.5 -542.5q0 -143 -79.5 -327.5t-192 -346t-225 -302t-192.5 -222.5l-79 -82q-31 31 -83.5 86t-184 215t-233 309.5t-184.5 338t-83 331.5q0 317 225.5 542.5t542.5 225.5zM768 1792q-210 0 -361 -151t-151 -361t151 -361t361 -151 t361 151t151 361t-151 361t-361 151z" />
<glyph unicode="&#xe091;" horiz-adv-x="2304" d="M0 2048h2048v-1385q3 -8 3 -28q0 -18 -3 -26v-609h-2048v2048zM1267 640q0 51 37 89.5t91 38.5h13h384v1024h-1536v-1536h1536v256h-384h-13q-54 0 -91 37t-37 91zM896 1536q159 0 271.5 -112.5t112.5 -271.5q0 -113 -96 -273t-191 -265l-97 -102q-15 15 -41 43.5 t-92.5 107.5t-117.5 153.5t-92 169t-41 166.5q0 159 112.5 271.5t271.5 112.5zM896 1280q-54 0 -91 -37t-37 -91t37 -91t91 -37t91 37t37 91t-37 91t-91 37z" />
<glyph unicode="&#xe092;" horiz-adv-x="1536" d="M0 1792h512v-1536h-512v1536zM1024 1792h512v-1536h-512v1536z" />
<glyph unicode="&#xe093;" horiz-adv-x="1536" d="M0 1792l1536 -768l-1536 -768v1536z" />
<glyph unicode="&#xe094;" horiz-adv-x="1536" d="M768 1792q317 0 542.5 -225.5t225.5 -542.5t-225.5 -542.5t-542.5 -225.5t-542.5 225.5t-225.5 542.5t225.5 542.5t542.5 225.5z" />
<glyph unicode="&#xe095;" d="M1024 1792v-1536l-1024 768zM1024 1024l1024 768v-1536z" />
<glyph unicode="&#xe096;" d="M0 1792l1024 -768l-1024 -768v1536zM1024 256v1536l1024 -768z" />
<glyph unicode="&#xe097;" d="M0 1792h512v-1536h-512v1536zM512 1024l1280 768v-1536z" />
<glyph unicode="&#xe098;" d="M0 1792l1280 -768l-1280 -768v1536zM1280 256v1536h512v-1536h-512z" />
<glyph unicode="&#xe099;" horiz-adv-x="1536" d="M0 1792h1536v-1536h-1536v1536z" />
<glyph unicode="&#xe09a;" d="M512 2048h1024v-512h512v-1024h-512v-512h-1024v512h-512v1024h512v512z" />
<glyph unicode="&#xe09b;" d="M0 1792h2048v-256h-2048v256zM0 1032h2048v-256h-2048v256zM0 264h2048v-256h-2048v256z" />
<glyph unicode="&#xe09c;" horiz-adv-x="1536" d="M712 1792q36 10 56 10q105 0 180.5 -75.5t75.5 -180.5v-10v-512q0 -105 -75.5 -180.5t-180.5 -75.5t-180.5 75.5t-75.5 180.5v512v5q0 84 59 158.5t141 92.5zM87 1280h10h8q3 0 10.5 1.5t12.5 1.5q54 0 91 -37.5t37 -90.5v-3v-128q0 -212 150 -362t362 -150t362 150 t150 362v128q0 54 37 91t91 37t91 -37t37 -91v-128q0 -282 -183 -494.5t-457 -258.5v-271h128q105 0 180.5 -75.5t75.5 -180.5h-1024q0 105 75.5 180.5t180.5 75.5h128v271q-274 46 -457 258.5t-183 494.5v128v5q0 38 25.5 75.5t61.5 47.5z" />
<glyph unicode="&#xe09d;" d="M0 1280h2048v-512h-2048v512z" />
<glyph unicode="&#xe09e;" d="M87 1792h10h8h10h13h1792q54 0 91 -37t37 -91v-1280q0 -54 -37 -91t-91 -37h-640v-256h256q105 0 180.5 -75.5t75.5 -180.5h-1536q0 105 75.5 180.5t180.5 75.5h256v256h-640q-54 0 -91 37t-37 91v1280v5q0 38 25.5 75.5t61.5 47.5zM256 1536v-1024h1536v1024h-1536z" />
<glyph unicode="&#xe09f;" d="M696 1792q-56 -161 -56 -328q0 -425 299.5 -724.5t724.5 -299.5q166 0 328 57q-102 -307 -368.5 -502t-599.5 -195q-425 0 -724.5 299.5t-299.5 724.5q0 333 194.5 599.5t501.5 368.5z" />
<glyph unicode="&#xe0a0;" d="M896 1792l384 -384h-256v-384h384v256l384 -384l-384 -384v256h-384v-384h256l-384 -384l-384 384h256v384h-384v-256l-384 384l384 384v-256h384v384h-256z" />
<glyph unicode="&#xe0a1;" d="M2048 2048v-1408q0 -159 -112.5 -271.5t-271.5 -112.5t-271.5 112.5t-112.5 271.5t112.5 271.5t271.5 112.5q59 0 128 -23v527q-684 -20 -1024 -128v-1016q0 -159 -112.5 -271.5t-271.5 -112.5t-271.5 112.5t-112.5 271.5t112.5 271.5t271.5 112.5q59 0 128 -23v1047 q10 10 35.5 28t138.5 61.5t266.5 77t445.5 61.5t650 28z" />
<glyph unicode="&#xe0a2;" horiz-adv-x="1792" d="M1277.5 1792q209.5 0 360.5 -151q148 -151 148.5 -361t-148.5 -358l-640 -625q-92 -92 -223.5 -92t-224 92t-92.5 224t92 224l246 248l177 -176l-231 -241l-18 -8q-18 -20 -17.5 -48t18 -48.5t48.5 -20.5t49 20l640 632q72 77 73 181t-73 180q-74 74 -183 75.5 t-186 -75.5l-712 -704q-128 -133 -129 -317t129 -315q133 -133 320 -133t320 133l23 31l297 289l177 -177l-320 -320q-205 -205 -496.5 -204.5t-496.5 205t-205 496.5t205 497l711 696q152 151 361.5 151z" />
<glyph unicode="&#xe0a3;" d="M1536 2048l512 -512l-256 -256l-512 512zM1024 1536l512 -512l-1024 -1024h-512v512z" />
<glyph unicode="&#xe0a4;" d="M1408 2048q159 0 271.5 -150t112.5 -362t-112.5 -362t-271.5 -150q-67 0 -151 49q23 100 23 207q0 323 -184 543q117 225 312 225zM640 1792q159 0 271.5 -150t112.5 -362t-112.5 -362t-271.5 -150t-271.5 150t-112.5 362t112.5 362t271.5 150zM1856 983 q87 -44 139.5 -124.5t52.5 -177.5v-425h-512v169q0 184 -113 343q259 8 433 215zM192 727q182 -215 448 -215t448 215q87 -44 139.5 -124.5t52.5 -177.5v-425h-1280v425q0 97 52.5 177.5t139.5 124.5z" />
<glyph unicode="&#xe0a5;" d="M1024 2048q212 0 362 -188t150 -452t-150 -452t-362 -188t-362 188t-150 452t150 452t362 188zM489 768q228 -256 535 -256t535 256q205 -10 347 -157.5t142 -354.5v-256h-2048v256q0 207 142 354.5t347 157.5z" />
<glyph unicode="&#xe0a6;" horiz-adv-x="1536" d="M49 2048h1182q49 0 49 -49v-1950q0 -49 -49 -49h-1182q-49 0 -49 49v1950q0 49 49 49zM256 1792v-1280h768v1280h-768zM640 384q-54 0 -91 -37t-37 -91t37 -91t91 -37t91 37t37 91t-37 91t-91 37z" />
<glyph unicode="&#xe0a7;" d="M896 2048q67 0 128 -8v-1016l-760 760q258 264 632 264zM1280 1777q328 -49 548 -297.5t220 -583.5q0 -371 -262.5 -633.5t-633.5 -262.5q-315 0 -568 207l696 697v873zM233 1439l607 -599l-543 -543q-138 108 -217.5 264t-79.5 335q0 318 233 543z" />
<glyph unicode="&#xe0a8;" d="M236 1664q0 46 34.5 87t82.5 41h8h10h13h1024q54 0 91 -37t37 -91t-37 -91t-91 -37h-128v-512h256q105 0 180.5 -75.5t75.5 -180.5h-768v-768l-143 -256l-113 256v768h-768q0 105 75.5 180.5t180.5 75.5h256v512h-128q-3 0 -10.5 -1.5t-9.5 -1.5q-54 0 -91 38.5t-37 92.5 z" />
<glyph unicode="&#xe0a9;" d="M1024 2048q425 0 724.5 -299.5t299.5 -724.5t-299.5 -724.5t-724.5 -299.5t-724.5 299.5t-299.5 724.5t299.5 724.5t724.5 299.5zM768 1536v-1024l768 512z" />
<glyph unicode="&#xe0aa;" d="M768 2048h512v-768h768v-512h-768v-768h-512v768h-768v512h768v768z" />
<glyph unicode="&#xe0ab;" d="M768 2048h256v-1024h-256v1024zM440 1679l159 -199l-102 -80q-241 -192 -241 -504q0 -266 187 -453t453 -187t453 187t187 453q0 151 -66.5 283t-181.5 221l-95 80l159 199l97 -79q159 -125 251 -309.5t92 -394.5q0 -371 -262.5 -633.5t-633.5 -262.5t-633.5 262.5 t-262.5 633.5q0 210 92 394.5t251 309.5z" />
<glyph unicode="&#xe0ac;" d="M512 2048h1024v-512h-1024v512zM23 1280h2002q23 0 23 -23v-722q0 -23 -23 -23h-233v512h-1536v-512h-233q-23 0 -23 23v722q0 23 23 23zM512 768h1024v-768h-1024v768z" />
<glyph unicode="&#xe0ad;" d="M0 1792h256v-1792h-256v1792zM1792 1792h256v-1792h-256v1792zM512 1536h512v-256h-512v256zM768 1024h512v-256h-512v256zM1024 512h512v-256h-512v256z" />
<glyph unicode="&#xe0ae;" d="M832 1792q67 -223 335 -1073q38 95 112.5 284.5t113.5 284.5q51 -97 222 -441h433v-256h-591l-34 72q-189 -471 -286 -704q-56 187 -305 986q-54 -172 -160 -512.5t-160 -511.5q-72 225 -215 670h-297v256h481l23 -87l8 -15q38 125 148.5 487.5t171.5 559.5z" />
<glyph unicode="&#xe0af;" d="M512 1536q0 110 73 183t183 73t183 -73t73 -183q0 -33 -11.5 -62.5t-32 -66.5t-28.5 -55q-8 -15 -7 -72h591v-591q56 0 72 7q18 8 55 28.5t66.5 32t62.5 11.5q110 0 183 -73t73 -183t-73 -183t-183 -73q-33 0 -62.5 11.5t-66.5 32t-55 28.5q-15 8 -72 7v-591h-591 q0 56 7 72q8 18 28.5 55t32 66.5t11.5 62.5q0 110 -73 183t-183 73t-183 -73t-73 -183q0 -33 11.5 -62.5t32 -66.5t28.5 -55q8 -15 7 -72h-591v1536h591q0 56 -7 72q-8 18 -28.5 55t-32 66.5t-11.5 62.5z" />
<glyph unicode="&#xe0b0;" horiz-adv-x="1280" d="M632 1792q323 0 489 -151q151 -138 151 -361q0 -138 -55 -259.5t-108.5 -180.5t-140.5 -136q-59 -51 -73 -65t-52.5 -56.5t-49 -70.5t-22 -79.5t-11.5 -112.5v-64h-256v64q0 138 51.5 258.5t105 182t138.5 135.5q5 5 39.5 34.5t39.5 36t32 32t32 35.5t24.5 34.5t23 42.5 t12.5 46t11.5 57.5t2.5 65.5q0 105 -71 169q-97 87 -313 87q-202 0 -297 -95q-61 -61 -79 -176l-256 30q26 202 151 328q169 169 481 169zM504 0h256v-256h-256v256z" />
<glyph unicode="&#xe0b1;" d="M1152 2048q266 0 453 -187t187 -453v-128q110 -41 183 -150t73 -234q0 -131 -80.5 -233t-206.5 -136q-44 108 -139.5 174.5t-213.5 66.5q-69 0 -143 -31q-33 125 -135.5 206t-233.5 81t-233 -80.5t-136 -206.5q-74 31 -143 31q-146 0 -248 -87q-136 148 -136 343 q0 210 151 361t361 151q44 220 227 366t413 146zM855 768h10h8q3 0 10.5 1.5t12.5 1.5q54 0 91 -37.5t37 -90.5v-3v-512q0 -54 -37 -91t-91 -37t-91 37t-37 91v512v5q0 38 25.5 75.5t61.5 47.5zM343 512h10h8q3 0 10.5 1.5t12.5 1.5q54 0 91 -37.5t37 -90.5v-3v-256 q0 -54 -37 -91t-91 -37t-91 37t-37 91v256v5q0 38 25.5 75.5t61.5 47.5zM1367 512h8h10q3 0 10.5 1.5t12.5 1.5q54 0 91 -37.5t37 -90.5v-3v-256q0 -54 -37 -91t-91 -37t-91 37t-37 91v256v5q0 38 25.5 75.5t61.5 47.5z" />
<glyph unicode="&#xe0b2;" d="M1536 2048l512 -384l-512 -384v256h-128l-392 -489l448 -527l16 -8h56v256l512 -384l-512 -384v256h-64q-118 0 -200 97l-425 487l-391 -487q-79 -97 -200 -97h-256v256h256l425 527l-417 489l-8 8h-256v256h256q118 0 200 -97l391 -456l361 456q79 97 200 97h128v256z " />
<glyph unicode="&#xe0b3;" d="M1024 2048q415 0 719 -305l305 305v-768h-768l279 279q-228 233 -535 233q-317 0 -542.5 -225.5t-225.5 -542.5t225.5 -542.5t542.5 -225.5t543 225l184 -184q-297 -297 -727 -297q-422 0 -723 301t-301 723t301 723t723 301z" />
<glyph unicode="&#xe0b4;" d="M1024 2048h1024v-1024l-425 425l-1024 -1024l425 -425h-1024v1024l425 -425l1024 1024z" />
<glyph unicode="&#xe0b5;" horiz-adv-x="1536" d="M640 2048l640 -768h-512v-512h512l-640 -768l-640 768h512v512h-512z" />
<glyph unicode="&#xe0b6;" d="M768 1536v-512h512v512l768 -640l-768 -640v512h-512v-512l-768 640z" />
<glyph unicode="&#xe0b7;" d="M0 2048q415 0 795 -162.5t654 -436.5t436.5 -654t162.5 -795h-512q0 420 -205 773t-558 558t-773 205v512zM0 1280q527 0 903.5 -376.5t376.5 -903.5h-512q0 320 -224 544t-544 224v512zM0 512q210 0 361 -151t151 -361h-512v512z" />
<glyph unicode="&#xe0b8;" d="M256 2048q486 0 898.5 -240.5t653 -653t240.5 -898.5h-256q0 312 -121.5 597.5t-326.5 490.5t-490.5 326.5t-597.5 121.5v256zM256 1536q348 0 642.5 -171.5t466 -466t171.5 -642.5h-256q0 425 -299.5 724.5t-724.5 299.5v256zM256 1024q317 0 542.5 -225.5t225.5 -542.5 h-256q0 212 -150 362t-362 150v256zM256 512q105 0 180.5 -75.5t75.5 -180.5t-75.5 -180.5t-180.5 -75.5t-180.5 75.5t-75.5 180.5t75.5 180.5t180.5 75.5z" />
<glyph unicode="&#xe0b9;" d="M768 2048h1024q105 0 180.5 -75.5t75.5 -180.5v-512h-1024v384q0 54 -37 91t-91 37t-91 -37t-37 -91v-640h1024v-768q0 -105 -75.5 -180.5t-180.5 -75.5h-1280q-105 0 -180.5 75.5t-75.5 180.5v512h256v-384q0 -54 37 -91t91 -37t91 37t37 91v1408q0 105 75.5 180.5 t180.5 75.5z" />
<glyph unicode="&#xe0ba;" d="M192 1792h576v-256h-512v-1280h1024v256h256v-320q0 -79 -56.5 -135.5t-135.5 -56.5h-1152q-79 0 -135.5 56.5t-56.5 135.5v1408q0 79 56.5 135.5t135.5 56.5zM1536 1792l512 -512l-512 -512v256h-512q-179 0 -317.5 -110t-179.5 -282q44 384 330.5 644t678.5 260v256z " />
<glyph unicode="&#xe0bb;" d="M1280 1792l768 -727l-768 -809v512h-256q-389 0 -658 -197t-366 -571q0 302 57.5 522t197 398t395.5 269t630 91v512z" />
<glyph unicode="&#xe0bc;" d="M975 2025l49 23l49 -23q95 -38 440.5 -185.5t534.5 -224.5v-79q0 -573 -376 -1073q-156 -207 -320 -327q-184 -136 -327.5 -136t-328.5 136q-164 120 -320 327q-376 504 -376 1073v79q189 77 534.5 224.5t440.5 185.5zM1024 256v1513l-753 -312q31 -463 313 -840 q143 -189 271 -282q110 -79 169 -79z" />
<glyph unicode="&#xe0bd;" d="M1536 2048h256v-2048h-256v2048zM1024 1792h256v-1792h-256v1792zM512 1280h256v-1280h-256v1280zM0 768h256v-768h-256v768z" />
<glyph unicode="&#xe0be;" d="M768 2048h256v-512h512l256 -256l-256 -256h-512v-1024h-256v1280h-512l-256 256l256 256h512v256z" />
<glyph unicode="&#xe0bf;" d="M512 2048h256v-1536h512l-640 -512l-640 512h512v1536zM1024 2048h512v-256h-512v256zM1024 1536h768v-256h-768v256zM1024 1024h1024v-256h-1024v256z" />
<glyph unicode="&#xe0c0;" d="M512 2048h256v-1536h512l-640 -512l-640 512h512v1536zM1024 2048h1024v-256h-1024v256zM1024 1536h768v-256h-768v256zM1024 1024h512v-256h-512v256z" />
<glyph unicode="&#xe0c1;" d="M192 1792h1664q79 0 135.5 -56.5t56.5 -135.5v-1408q0 -79 -56.5 -135.5t-135.5 -56.5h-1664q-79 0 -135.5 56.5t-56.5 135.5v1408q0 79 56.5 135.5t135.5 56.5zM256 1536v-256h256v256h-256zM768 1536v-256h1024v256h-1024zM256 1024v-256h256v256h-256zM768 1024v-256 h1024v256h-1024zM256 512v-256h256v256h-256zM768 512v-256h1024v256h-1024z" />
<glyph unicode="&#xe0c2;" d="M1024 2048l256 -768h768l-640 -512l256 -768l-640 512l-640 -512l256 768l-640 512h768z" />
<glyph unicode="&#xe0c3;" d="M1024 2048q54 0 91 -37t37 -91t-37 -91t-91 -37t-91 37t-37 91t37 91t91 37zM384 1792q54 0 91 -37t37 -91t-37 -91t-91 -37t-91 37t-37 91t37 91t91 37zM1664 1792q54 0 91 -37t37 -91t-37 -91t-91 -37t-91 37t-37 91t37 91t91 37zM1024 1536q210 0 361 -151t151 -361 t-151 -361t-361 -151t-361 151t-151 361t151 361t361 151zM128 1152q54 0 91 -37t37 -91t-37 -91t-91 -37t-91 37t-37 91t37 91t91 37zM1920 1152q54 0 91 -37t37 -91t-37 -91t-91 -37t-91 37t-37 91t37 91t91 37zM384 512q54 0 91 -37t37 -91t-37 -91t-91 -37t-91 37 t-37 91t37 91t91 37zM1664 512q54 0 91 -37t37 -91t-37 -91t-91 -37t-91 37t-37 91t37 91t91 37zM1024 256q54 0 91 -37t37 -91t-37 -91t-91 -37t-91 37t-37 91t37 91t91 37z" />
<glyph unicode="&#xe0c4;" d="M87 2048h1618q36 0 61.5 -25.5t25.5 -61.5v-1874q0 -36 -25.5 -61.5t-61.5 -25.5h-1618q-36 0 -61.5 25.5t-25.5 61.5v1874q0 36 25.5 61.5t61.5 25.5zM256 1792v-1280h1280v1280h-1280zM896 384q-74 0 -111 -64t-1.5 -128t112.5 -64t112.5 64t-1.5 128t-111 64z" />
<glyph unicode="&#xe0c5;" d="M0 2048h768l1280 -1280l-768 -768l-1280 1280v768zM512 1792q-105 0 -180.5 -75.5t-75.5 -180.5t75.5 -180.5t180.5 -75.5t180.5 75.5t75.5 180.5t-75.5 180.5t-180.5 75.5z" />
<glyph unicode="&#xe0c6;" d="M0 1536h512l768 -768l-512 -512l-768 768v512zM870 1536h410l768 -768l-512 -512l-200 200l305 312zM384 1280q-54 0 -91 -37t-37 -91t37 -91t91 -37t91 37t37 91t-37 91t-91 37z" />
<glyph unicode="&#xe0c7;" d="M1024 2048q422 0 723 -301t301 -723t-301 -723t-723 -301t-723 301t-301 723t301 723t723 301zM1024 1792q-317 0 -542.5 -225.5t-225.5 -542.5t225.5 -542.5t542.5 -225.5t542.5 225.5t225.5 542.5t-225.5 542.5t-542.5 225.5zM1024 1536q210 0 361 -151t151 -361 t-151 -361t-361 -151t-361 151t-151 361t151 361t361 151zM1024 1280q-108 0 -182 -74t-74 -182t74 -182t182 -74t182 74t74 182t-74 182t-182 74z" />
<glyph unicode="&#xe0c8;" d="M0 1792h1431l-256 -256h-919v-1280h1280v407l256 256v-919h-1792v1792zM1792 1792l256 -256l-1024 -1024l-512 512l256 256l256 -256z" />
<glyph unicode="&#xe0c9;" d="M23 2048h2002q23 0 23 -23v-2002q0 -23 -23 -23h-2002q-23 0 -23 23v2002q0 23 23 23zM384 1848l-184 -184l256 -256l-256 -256l184 -184l440 440zM1024 1280v-256h768v256h-768z" />
<glyph unicode="&#xe0ca;" d="M0 2048h2048v-512h-128q0 105 -75.5 180.5t-180.5 75.5h-384v-1408q0 -54 37 -91t91 -37h128v-256h-1024v256h128q54 0 91 37t37 91v1408h-384q-105 0 -180.5 -75.5t-75.5 -180.5h-128v512z" />
<glyph unicode="&#xe0cb;" d="M0 1792h256v-1024h-256v1024zM512 1792h896q84 0 120 -79q264 -745 264 -817q0 -54 -37 -91t-91 -37h-384q-51 0 -89.5 -39.5t-38.5 -88.5q0 -79 120 -471q15 -51 -7.5 -98.5t-71.5 -63t-95 6.5t-74 73q-5 8 -84.5 165.5t-151 290.5t-92.5 153q-72 72 -184 72v1024z" />
<glyph unicode="&#xe0cc;" d="M1024 1705q41 79 120 87l49 -8q49 -15 72 -62.5t7 -98.5q-120 -392 -120 -471q0 -49 38.5 -88.5t89.5 -39.5h384q54 0 91 -37t37 -91q0 -31 -66.5 -235.5t-133.5 -394.5l-64 -187q-36 -79 -120 -79h-896v1024q113 0 184 72q20 20 92 153t151.5 290.5t84.5 165.5zM0 1024 h256v-1024h-256v1024z" />
<glyph unicode="&#xe0cd;" d="M512 1792h768v-256h-256v-15q128 -20 184 -41l-87 -241q-105 41 -225 41q-266 0 -453 -187t-187 -453t187 -453t453 -187t453 187t187 453q0 120 -41 225l233 95q64 -174 64 -320q0 -371 -262.5 -633.5t-633.5 -262.5t-633.5 262.5t-262.5 633.5q0 335 220 588.5 t548 299.5v8h-256v256zM1792 1495q-758 -891 -809 -942q-38 -38 -87 -38t-87 38t-38 87t38 87q23 23 269 215t478 374z" />
<glyph unicode="&#xe0ce;" d="M1536 1792l512 -384l-512 -384v256h-1536v256h1536v256zM512 768v-256h1536v-256h-1536v-256l-512 384z" />
<glyph unicode="&#xe0cf;" d="M768 2048h256q105 0 180.5 -75.5t75.5 -180.5h256q105 0 180.5 -75.5t75.5 -180.5h-1792q0 105 75.5 180.5t180.5 75.5h256q0 105 75.5 180.5t180.5 75.5zM256 1280h256v-896q0 -54 37 -91t91 -37t91 37t37 91v896h256v-896q0 -54 37 -91t91 -37t91 37t37 91v896h256 v-1231q0 -49 -49 -49h-1182q-49 0 -49 49v1231z" />
<glyph unicode="&#xe0d0;" d="M256 2048h512v-1024q0 -105 75.5 -180.5t180.5 -75.5t180.5 75.5t75.5 180.5v1024h256v-1024q0 -210 -151 -361t-361 -151h-128q-264 0 -452 150t-188 362v1024zM0 256h1792v-256h-1792v256z" />
<glyph unicode="&#xe0d1;" d="M23 1792h466q23 0 23 -23v-1234q0 -23 -23 -23h-466q-23 0 -23 23v1234q0 23 23 23zM1559 1792h466q23 0 23 -23v-1234q0 -23 -23 -23h-466q-23 0 -23 23v1234q0 23 23 23zM791 1280h466q23 0 23 -23v-722q0 -23 -23 -23h-466q-23 0 -23 23v722q0 23 23 23zM0 256h2048 v-256h-2048v256z" />
<glyph unicode="&#xe0d2;" d="M26 1792h463q23 0 23 -23v-489h-512v489q0 23 26 23zM1562 1792h463q23 0 23 -23v-489h-512v489q0 23 26 23zM794 1536h463q23 0 23 -23v-233h-512v233q0 23 26 23zM0 1024h2048v-256h-2048v256zM0 512h512v-489q0 -23 -23 -23h-466q-23 0 -23 23v489zM768 512h512v-233 q0 -23 -23 -23h-463q-26 0 -26 23v233zM1536 512h512v-489q0 -23 -23 -23h-463q-26 0 -26 23v489z" />
<glyph unicode="&#xe0d3;" d="M0 1792h2048v-256h-2048v256zM23 1280h466q23 0 23 -23v-1234q0 -23 -23 -23h-466q-23 0 -23 23v1234q0 23 23 23zM791 1280h466q23 0 23 -23v-722q0 -23 -23 -23h-466q-23 0 -23 23v722q0 23 23 23zM1559 1280h466q23 0 23 -23v-1234q0 -23 -23 -23h-466q-23 0 -23 23 v1234q0 23 23 23z" />
<glyph unicode="&#xe0d4;" d="M128 1536h1280q54 0 91 -37t37 -91v-384l256 256h256v-768h-256l-256 256v-384q0 -54 -37 -91t-91 -37h-1280q-54 0 -91 37t-37 91v1024q0 54 37 91t91 37z" />
<glyph unicode="&#xe0d5;" d="M855 2048h169v-2048h-169l-343 512h-512v1024h512zM1280 1536v256q95 0 192 -26q251 -64 413.5 -270t162.5 -472t-162.5 -473.5t-413.5 -271.5h-8q-87 -23 -184 -23v256q67 0 128 15q166 44 275 181t109 316t-109 316t-275 181q-61 15 -128 15zM1280 1280l64 -8 q84 -20 138 -90.5t54 -157.5t-55 -157.5t-137 -90.5l-64 -8v512z" />
<glyph unicode="&#xe0d6;" horiz-adv-x="1536" d="M855 2048h169v-2048h-169l-343 512h-512v1024h512zM1280 1280l64 -8q84 -20 138 -90.5t54 -157.5t-55 -157.5t-137 -90.5l-64 -8v512z" />
<glyph unicode="&#xe0d7;" horiz-adv-x="1024" d="M855 2048h169v-2048h-169l-343 512h-512v1024h512z" />
<glyph unicode="&#xe0d8;" d="M791 2048h210q20 0 31 -23l752 -1746l8 -49v-207q0 -23 -23 -23h-1746q-23 0 -23 23v207l8 49l752 1746q11 23 31 23zM768 1280v-512h256v512h-256zM768 512v-256h256v256h-256z" />
<glyph unicode="&#xe0d9;" d="M960 2048q532 0 968 -279l-136 -210q-361 233 -832 233q-458 0 -824 -233l-136 210q435 279 960 279zM960 1280q300 0 553 -159l-136 -217q-184 120 -417 120q-218 0 -407 -120l-138 217q245 159 545 159zM960 512q105 0 180.5 -75.5t75.5 -180.5t-75.5 -180.5 t-180.5 -75.5t-180.5 75.5t-75.5 180.5t75.5 180.5t180.5 75.5z" />
<glyph unicode="&#xe0da;" horiz-adv-x="2304" d="M1411 2048q82 0 120 -8l-248 -248v-512h512l248 248q8 -38 8 -120q0 -266 -188.5 -453t-451.5 -187q-108 0 -231 49l-737 -745q-72 -72 -184.5 -72t-184.5 72q-74 74 -74 184t74 184l745 735q-49 123 -48 233q0 266 188 453t452 187zM258.5 384q-53.5 0 -90.5 -37 t-37 -91t37 -91t90.5 -37t91 37t37.5 91t-37.5 91t-91 37z" />
<glyph unicode="&#xe0db;" d="M361 1792q3 -3 648 -640q69 72 199.5 201t235.5 235.5t197 203.5l366 -361l-648 -648q72 -69 202.5 -198t239.5 -235.5t206 -198.5l-366 -366q-92 97 -198.5 206t-235.5 239.5t-198 202.5l-648 -648l-361 366q131 123 640 632q-637 645 -640 648z" />
<glyph unicode="&#xe0dc;" d="M0 2048h256l591 -768h98l591 768h256l-576 -768h576v-256h-768v-256h768v-256h-768v-512h-256v512h-768v256h768v256h-768v256h576z" />
<glyph unicode="&#xe0dd;" horiz-adv-x="2304" d="M896 2048q371 0 633.5 -262.5t262.5 -633.5q0 -225 -113 -433q20 -10 34 -23l263 -256q31 -31 54 -85.5t23 -98.5q0 -108 -76.5 -184.5t-184.5 -76.5q-44 0 -99 23t-85 54l-256 263q-13 13 -23 34q-202 -113 -433 -113q-371 0 -633.5 262.5t-262.5 633.5t262.5 633.5 t633.5 262.5zM896 1792q-266 0 -453 -187t-187 -453t187 -453t453 -187q236 0 417 154q36 59 80 79l7 8q136 172 136 399q0 266 -187 453t-453 187zM768 1536h256v-256h256v-256h-256v-256h-256v256h-256v256h256v256z" />
<glyph unicode="&#xe0de;" horiz-adv-x="2304" d="M896 2048q371 0 633.5 -262.5t262.5 -633.5q0 -225 -113 -433q20 -10 34 -23l263 -256q31 -31 54 -85.5t23 -98.5q0 -108 -76.5 -184.5t-184.5 -76.5q-44 0 -99 23t-85 54l-256 263q-13 13 -23 34q-202 -113 -433 -113q-371 0 -633.5 262.5t-262.5 633.5t262.5 633.5 t633.5 262.5zM896 1792q-266 0 -453 -187t-187 -453t187 -453t453 -187q236 0 417 154q36 59 80 79l7 8q136 172 136 399q0 266 -187 453t-453 187zM512 1280h768v-256h-768v256z" />
</font>
</defs>
</svg>
