<svg xmlns="http://www.w3.org/2000/svg" width="45" height="50" viewBox="0 0 45 50"><g><path fill="#8B9399" d="M39 11h-4.7C32.5 11 31 9.5 31 7.7V3l8 8z"/><radialGradient id="a" cx="20.25" cy="28.994" r="28.877" gradientUnits="userSpaceOnUse"><stop offset=".095" stop-color="#E3E9ED"/><stop offset=".629" stop-color="#D3DCE2"/><stop offset=".964" stop-color="#C7D2D9"/></radialGradient><path fill="url(#a)" d="M32.6 13c-2 0-3.6-1.6-3.6-3.6V3H9.5C8.1 3 7 4.1 7 5.5v36.9C7 43.9 8.1 45 9.5 45h26.9c1.4 0 2.5-1.1 2.5-2.5V13h-6.3z"/><g fill="#393D40"><path d="M10.9 36.5c.2.5.6.7.9.7.5 0 .8-.3.8-1.2v-4.2h1v4.3c0 1.1-.5 2.1-1.8 2.1-.8 0-1.4-.4-1.8-1.1l.9-.6zM16.2 36.5c.4.4 1 .7 1.5.7.7 0 1-.3 1-.8s-.4-.7-.9-.9l-.8-.4c-.6-.3-1.2-.7-1.2-1.7s.8-1.7 2-1.7c.7 0 1.4.3 1.8.8l-.5.7c-.4-.3-.8-.5-1.3-.5-.6 0-.9.3-.9.7 0 .5.5.7.9.9l.8.4c.7.3 1.2.8 1.2 1.7 0 1-.8 1.8-2.1 1.8-.8 0-1.6-.3-2.1-.9l.6-.8z"/></g></g></svg>